<?xml version="1.0" encoding="utf-8"?>
<!-- Generator: Adobe Illustrator 23.0.2, SVG Export Plug-In . SVG Version: 6.00 Build 0)  -->
<svg version="1.1" id="Слой_1" xmlns="http://www.w3.org/2000/svg" xmlns:xlink="http://www.w3.org/1999/xlink" x="0px" y="0px"
	 viewBox="0 0 721 721" style="enable-background:new 0 0 721 721;" xml:space="preserve">
<style type="text/css">
	.st0{fill:#111212;}
	.st1{fill:#111212;}
	.st2{fill:#111212;}
</style>
<path class="st0" d="M3.39,408.39c0,1.34,0.18,2.59,0.54,3.75c0.36,1.16,0.88,2.17,1.57,3.02c0.68,0.85,1.54,1.53,2.57,2.03
	c1.03,0.51,2.21,0.76,3.55,0.76c0.55,0,1.17-0.06,1.84-0.17c0.67-0.12,1.32-0.25,1.96-0.42c0.64-0.16,1.24-0.36,1.81-0.59
	c0.57-0.23,1.04-0.46,1.4-0.69v3.14c-1.08,0.46-2.27,0.8-3.58,1.03c-1.31,0.23-2.53,0.34-3.68,0.34c-2.06,0-3.82-0.33-5.27-0.98
	c-1.45-0.65-2.63-1.57-3.53-2.75s-1.55-2.56-1.96-4.16c-0.41-1.6-0.61-3.33-0.61-5.2c0-1.89,0.25-3.65,0.76-5.27
	c0.51-1.62,1.22-3,2.13-4.14c0.91-1.14,2.02-2.04,3.33-2.7c1.31-0.65,2.75-0.98,4.31-0.98c1.76,0,3.28,0.33,4.53,1
	c1.26,0.67,2.29,1.57,3.09,2.69c0.8,1.13,1.39,2.44,1.77,3.95c0.38,1.5,0.56,3.09,0.56,4.75v1.57H3.39L3.39,408.39z M16.77,402.56
	c-0.23-1.05-0.6-1.98-1.1-2.79c-0.51-0.81-1.17-1.47-1.99-1.96c-0.82-0.49-1.8-0.73-2.94-0.73c-1.14,0-2.17,0.26-3.06,0.78
	c-0.9,0.52-1.67,1.19-2.3,2.01c-0.64,0.82-1.13,1.75-1.47,2.79c-0.34,1.05-0.52,2.07-0.52,3.09h13.72
	C17.11,404.66,17,403.6,16.77,402.56L16.77,402.56z M25.78,408.48v-3.38h12.3v3.38H25.78L25.78,408.48z M58.83,397.44
	c-0.93-0.25-1.82-0.37-2.67-0.37c-1.5,0-2.84,0.26-4.02,0.78c-1.18,0.52-2.17,1.24-2.97,2.16c-0.8,0.92-1.4,2.02-1.81,3.31
	c-0.41,1.29-0.61,2.69-0.61,4.19c0,1.44,0.2,2.79,0.61,4.04c0.41,1.26,1,2.36,1.79,3.31c0.79,0.95,1.74,1.7,2.87,2.25
	c1.13,0.55,2.39,0.83,3.8,0.83c0.98,0,1.93-0.1,2.84-0.29c0.91-0.2,1.84-0.47,2.79-0.83l0.29,2.89c-1.05,0.36-2.08,0.6-3.11,0.71
	c-1.03,0.11-2.13,0.17-3.31,0.17c-2.03,0-3.78-0.35-5.27-1.05c-1.49-0.7-2.73-1.66-3.72-2.87c-1-1.21-1.74-2.6-2.23-4.19
	c-0.49-1.58-0.73-3.24-0.73-4.97c0-1.93,0.29-3.69,0.88-5.29c0.59-1.6,1.42-2.98,2.5-4.14c1.08-1.16,2.38-2.06,3.9-2.7
	c1.52-0.64,3.21-0.95,5.07-0.95c1.5,0,2.77,0.12,3.8,0.37c1.03,0.25,1.77,0.45,2.23,0.61l-0.24,2.94
	C60.65,397.98,59.76,397.68,58.83,397.44L58.83,397.44z M87.82,412.43c-0.46,1.58-1.16,2.98-2.11,4.19
	c-0.95,1.21-2.16,2.17-3.63,2.89c-1.47,0.72-3.22,1.08-5.24,1.08c-2.03,0-3.77-0.36-5.24-1.08c-1.47-0.72-2.68-1.68-3.63-2.89
	c-0.95-1.21-1.65-2.6-2.11-4.19c-0.46-1.58-0.69-3.23-0.69-4.92c0-1.7,0.23-3.34,0.69-4.93c0.46-1.58,1.16-2.98,2.11-4.19
	c0.95-1.21,2.16-2.17,3.63-2.89c1.47-0.72,3.22-1.08,5.24-1.08c2.03,0,3.77,0.36,5.24,1.08c1.47,0.72,2.68,1.68,3.63,2.89
	c0.95,1.21,1.65,2.6,2.11,4.19c0.46,1.59,0.68,3.23,0.68,4.93C88.5,409.2,88.27,410.85,87.82,412.43L87.82,412.43z M84.58,403.44
	c-0.36-1.27-0.89-2.38-1.59-3.33c-0.7-0.95-1.57-1.69-2.6-2.23c-1.03-0.54-2.21-0.81-3.55-0.81c-1.34,0-2.52,0.27-3.55,0.81
	c-1.03,0.54-1.9,1.28-2.6,2.23c-0.7,0.95-1.23,2.06-1.59,3.33c-0.36,1.27-0.54,2.63-0.54,4.07c0,1.44,0.18,2.79,0.54,4.07
	c0.36,1.27,0.89,2.39,1.59,3.33c0.7,0.95,1.57,1.69,2.6,2.23c1.03,0.54,2.21,0.81,3.55,0.81c1.34,0,2.52-0.27,3.55-0.81
	c1.03-0.54,1.9-1.28,2.6-2.23c0.7-0.95,1.23-2.06,1.59-3.33c0.36-1.27,0.54-2.63,0.54-4.07C85.12,406.07,84.94,404.71,84.58,403.44
	L84.58,403.44z M124.61,420v-16.61c0-0.88-0.09-1.71-0.27-2.47c-0.18-0.77-0.47-1.44-0.88-2.01c-0.41-0.57-0.95-1.02-1.64-1.35
	c-0.69-0.33-1.52-0.49-2.5-0.49c-0.85,0-1.67,0.18-2.47,0.54c-0.8,0.36-1.52,0.92-2.16,1.67c-0.64,0.75-1.14,1.7-1.52,2.84
	c-0.38,1.14-0.57,2.5-0.57,4.07V420h-3.09v-16.61c0-0.88-0.09-1.71-0.27-2.47c-0.18-0.77-0.47-1.44-0.88-2.01
	c-0.41-0.57-0.95-1.02-1.64-1.35c-0.68-0.33-1.52-0.49-2.5-0.49c-0.85,0-1.67,0.18-2.47,0.54c-0.8,0.36-1.52,0.92-2.16,1.67
	c-0.64,0.75-1.14,1.7-1.52,2.84c-0.38,1.14-0.56,2.5-0.56,4.07V420h-3.09v-19.11c0-0.95-0.01-1.91-0.02-2.89
	c-0.02-0.98-0.07-1.98-0.17-2.99h2.99v4.21l0.1,0.05c0.23-0.42,0.51-0.91,0.86-1.47c0.34-0.55,0.81-1.08,1.4-1.59
	c0.59-0.51,1.32-0.93,2.2-1.27c0.88-0.34,1.99-0.51,3.33-0.51c0.55,0,1.18,0.07,1.86,0.22c0.69,0.15,1.35,0.42,1.98,0.81
	c0.64,0.39,1.21,0.93,1.72,1.62c0.51,0.68,0.86,1.57,1.05,2.65h0.1c0.55-1.47,1.54-2.72,2.94-3.75c1.4-1.03,3.09-1.54,5.05-1.54
	c1.27,0,2.4,0.21,3.38,0.64c0.98,0.42,1.8,1,2.47,1.74c0.67,0.73,1.18,1.62,1.52,2.65c0.34,1.03,0.51,2.15,0.51,3.36V420H124.61
	L124.61,420z M165.53,420v-16.61c0-0.88-0.09-1.71-0.27-2.47c-0.18-0.77-0.47-1.44-0.88-2.01c-0.41-0.57-0.95-1.02-1.64-1.35
	c-0.68-0.33-1.52-0.49-2.5-0.49c-0.85,0-1.67,0.18-2.47,0.54c-0.8,0.36-1.52,0.92-2.16,1.67c-0.64,0.75-1.14,1.7-1.52,2.84
	c-0.38,1.14-0.56,2.5-0.56,4.07V420h-3.09v-16.61c0-0.88-0.09-1.71-0.27-2.47c-0.18-0.77-0.47-1.44-0.88-2.01
	c-0.41-0.57-0.95-1.02-1.64-1.35c-0.69-0.33-1.52-0.49-2.5-0.49c-0.85,0-1.67,0.18-2.47,0.54c-0.8,0.36-1.52,0.92-2.16,1.67
	c-0.64,0.75-1.14,1.7-1.52,2.84c-0.38,1.14-0.56,2.5-0.56,4.07V420h-3.09v-19.11c0-0.95-0.01-1.91-0.02-2.89
	c-0.02-0.98-0.07-1.98-0.17-2.99h2.99v4.21l0.1,0.05c0.23-0.42,0.51-0.91,0.86-1.47c0.34-0.55,0.81-1.08,1.4-1.59
	c0.59-0.51,1.32-0.93,2.2-1.27c0.88-0.34,1.99-0.51,3.33-0.51c0.55,0,1.18,0.07,1.86,0.22c0.69,0.15,1.35,0.42,1.99,0.81
	c0.64,0.39,1.21,0.93,1.71,1.62c0.51,0.68,0.86,1.57,1.05,2.65h0.1c0.56-1.47,1.54-2.72,2.94-3.75c1.4-1.03,3.09-1.54,5.05-1.54
	c1.27,0,2.4,0.21,3.38,0.64c0.98,0.42,1.8,1,2.47,1.74c0.67,0.73,1.18,1.62,1.52,2.65c0.34,1.03,0.51,2.15,0.51,3.36V420H165.53
	L165.53,420z M177.78,408.39c0,1.34,0.18,2.59,0.54,3.75c0.36,1.16,0.88,2.17,1.57,3.02c0.69,0.85,1.54,1.53,2.57,2.03
	c1.03,0.51,2.21,0.76,3.55,0.76c0.55,0,1.17-0.06,1.84-0.17c0.67-0.12,1.32-0.25,1.96-0.42c0.64-0.16,1.24-0.36,1.81-0.59
	c0.57-0.23,1.04-0.46,1.4-0.69v3.14c-1.08,0.46-2.27,0.8-3.58,1.03c-1.31,0.23-2.53,0.34-3.67,0.34c-2.06,0-3.82-0.33-5.27-0.98
	c-1.45-0.65-2.63-1.57-3.53-2.75c-0.9-1.18-1.55-2.56-1.96-4.16c-0.41-1.6-0.61-3.33-0.61-5.2c0-1.89,0.25-3.65,0.76-5.27
	c0.51-1.62,1.22-3,2.13-4.14c0.92-1.14,2.03-2.04,3.33-2.7c1.31-0.65,2.74-0.98,4.31-0.98c1.76,0,3.27,0.33,4.53,1
	c1.26,0.67,2.29,1.57,3.09,2.69c0.8,1.13,1.39,2.44,1.76,3.95c0.38,1.5,0.57,3.09,0.57,4.75v1.57H177.78L177.78,408.39z
	 M191.16,402.56c-0.23-1.05-0.6-1.98-1.1-2.79c-0.51-0.81-1.17-1.47-1.98-1.96c-0.82-0.49-1.8-0.73-2.94-0.73
	c-1.14,0-2.17,0.26-3.06,0.78c-0.9,0.52-1.67,1.19-2.3,2.01c-0.64,0.82-1.13,1.75-1.47,2.79c-0.34,1.05-0.51,2.07-0.51,3.09h13.72
	C191.5,404.66,191.39,403.6,191.16,402.56L191.16,402.56z M210.17,397.66c-1.24,0-2.26,0.31-3.06,0.93
	c-0.8,0.62-1.43,1.41-1.89,2.38c-0.46,0.97-0.78,2.04-0.98,3.24c-0.2,1.19-0.29,2.34-0.29,3.45V420h-3.09V400.6
	c0-0.68,0-1.27,0-1.76s-0.01-0.95-0.02-1.37c-0.02-0.42-0.04-0.82-0.07-1.2c-0.03-0.38-0.07-0.79-0.1-1.25h3.09v4.8h0.1
	c0.29-0.68,0.64-1.35,1.03-2.01c0.39-0.65,0.86-1.23,1.4-1.74c0.54-0.51,1.14-0.91,1.81-1.2c0.67-0.29,1.4-0.44,2.18-0.44
	c0.36,0,0.74,0.03,1.15,0.1c0.41,0.07,0.74,0.13,1,0.2v3.23C211.77,397.75,211.02,397.66,210.17,397.66L210.17,397.66z
	 M229.99,397.44c-0.93-0.25-1.82-0.37-2.67-0.37c-1.5,0-2.84,0.26-4.02,0.78c-1.18,0.52-2.17,1.24-2.97,2.16
	c-0.8,0.92-1.4,2.02-1.81,3.31c-0.41,1.29-0.61,2.69-0.61,4.19c0,1.44,0.2,2.79,0.61,4.04c0.41,1.26,1,2.36,1.79,3.31
	c0.78,0.95,1.74,1.7,2.87,2.25c1.13,0.55,2.39,0.83,3.8,0.83c0.98,0,1.93-0.1,2.84-0.29c0.92-0.2,1.85-0.47,2.79-0.83l0.29,2.89
	c-1.05,0.36-2.08,0.6-3.11,0.71c-1.03,0.11-2.13,0.17-3.31,0.17c-2.03,0-3.78-0.35-5.27-1.05c-1.49-0.7-2.73-1.66-3.72-2.87
	c-1-1.21-1.74-2.6-2.23-4.19c-0.49-1.58-0.73-3.24-0.73-4.97c0-1.93,0.29-3.69,0.88-5.29c0.59-1.6,1.42-2.98,2.5-4.14
	c1.08-1.16,2.38-2.06,3.9-2.7c1.52-0.64,3.21-0.95,5.07-0.95c1.5,0,2.77,0.12,3.8,0.37c1.03,0.25,1.77,0.45,2.23,0.61l-0.25,2.94
	C231.81,397.98,230.92,397.68,229.99,397.44L229.99,397.44z M239.76,408.39c0,1.34,0.18,2.59,0.54,3.75
	c0.36,1.16,0.88,2.17,1.57,3.02c0.68,0.85,1.54,1.53,2.57,2.03c1.03,0.51,2.21,0.76,3.55,0.76c0.55,0,1.17-0.06,1.84-0.17
	c0.67-0.12,1.32-0.25,1.96-0.42c0.64-0.16,1.24-0.36,1.81-0.59c0.57-0.23,1.04-0.46,1.4-0.69v3.14c-1.08,0.46-2.27,0.8-3.58,1.03
	c-1.31,0.23-2.53,0.34-3.68,0.34c-2.06,0-3.82-0.33-5.27-0.98c-1.45-0.65-2.63-1.57-3.53-2.75c-0.9-1.18-1.55-2.56-1.96-4.16
	c-0.41-1.6-0.61-3.33-0.61-5.2c0-1.89,0.25-3.65,0.76-5.27c0.51-1.62,1.22-3,2.13-4.14c0.91-1.14,2.02-2.04,3.33-2.7
	c1.31-0.65,2.75-0.98,4.31-0.98c1.76,0,3.28,0.33,4.53,1c1.26,0.67,2.29,1.57,3.09,2.69c0.8,1.13,1.39,2.44,1.77,3.95
	c0.38,1.5,0.56,3.09,0.56,4.75v1.57H239.76L239.76,408.39z M253.14,402.56c-0.23-1.05-0.6-1.98-1.1-2.79
	c-0.51-0.81-1.17-1.47-1.99-1.96c-0.82-0.49-1.8-0.73-2.94-0.73c-1.14,0-2.17,0.26-3.06,0.78c-0.9,0.52-1.67,1.19-2.3,2.01
	c-0.64,0.82-1.13,1.75-1.47,2.79c-0.34,1.05-0.52,2.07-0.52,3.09h13.72C253.48,404.66,253.37,403.6,253.14,402.56L253.14,402.56z
	 M287.19,420v-4.02h-0.1c-0.36,0.75-0.82,1.41-1.4,1.99c-0.57,0.57-1.22,1.05-1.94,1.45c-0.72,0.39-1.47,0.68-2.25,0.88
	c-0.78,0.2-1.57,0.29-2.35,0.29c-1.76,0-3.18-0.26-4.26-0.78c-1.08-0.52-1.91-1.15-2.5-1.89c-0.59-0.73-0.98-1.51-1.18-2.33
	c-0.2-0.81-0.29-1.5-0.29-2.06c0-2.09,0.5-3.72,1.49-4.9c1-1.18,2.25-2.05,3.77-2.62c1.52-0.57,3.18-0.92,4.97-1.05
	c1.8-0.13,3.51-0.2,5.15-0.2h0.59v-1.27c0-2.16-0.42-3.76-1.27-4.83s-2.32-1.59-4.41-1.59c-1.31,0-2.57,0.15-3.8,0.46
	c-1.23,0.31-2.41,0.84-3.55,1.59v-2.99c0.49-0.23,1.04-0.45,1.64-0.66c0.6-0.21,1.24-0.39,1.91-0.54c0.67-0.15,1.33-0.27,1.98-0.37
	c0.65-0.1,1.26-0.15,1.81-0.15c3.1,0,5.34,0.73,6.71,2.2c1.37,1.47,2.06,3.84,2.06,7.11v11.02c0,1.01,0.01,1.93,0.02,2.75
	c0.02,0.82,0.09,1.65,0.22,2.5H287.19L287.19,420z M286.9,407.41h-0.88c-1.34,0-2.7,0.06-4.09,0.17c-1.39,0.12-2.65,0.38-3.77,0.78
	c-1.13,0.41-2.05,1.01-2.77,1.81c-0.72,0.8-1.08,1.89-1.08,3.26c0,1.63,0.51,2.79,1.52,3.48c1.01,0.68,2.24,1.03,3.68,1.03
	c1.8,0,3.2-0.34,4.22-1.03c1.01-0.69,1.75-1.51,2.2-2.47c0.46-0.96,0.73-1.95,0.83-2.96c0.1-1.01,0.15-1.86,0.15-2.55V407.41
	L286.9,407.41z M313.85,420v-15.19c0-2.35-0.46-4.23-1.37-5.63c-0.92-1.4-2.43-2.11-4.56-2.11c-1.4,0-2.58,0.28-3.53,0.83
	c-0.95,0.55-1.71,1.27-2.28,2.16c-0.57,0.88-0.98,1.86-1.23,2.94c-0.25,1.08-0.37,2.14-0.37,3.19V420h-3.09v-19.11
	c0-0.95-0.01-1.91-0.02-2.89c-0.02-0.98-0.07-1.98-0.17-2.99h2.99v4.46h0.1c0.26-0.55,0.59-1.13,0.98-1.74
	c0.39-0.6,0.9-1.15,1.52-1.64c0.62-0.49,1.38-0.89,2.28-1.2c0.9-0.31,2-0.46,3.31-0.46c1.53,0,2.84,0.24,3.92,0.73
	c1.08,0.49,1.96,1.16,2.65,2.01c0.69,0.85,1.18,1.86,1.5,3.04c0.31,1.18,0.47,2.45,0.47,3.82V420H313.85L313.85,420z M341.49,420
	v-3.97h-0.1c-0.85,1.6-1.91,2.76-3.18,3.48c-1.27,0.72-2.81,1.08-4.61,1.08c-1.73,0-3.23-0.34-4.51-1
	c-1.27-0.67-2.35-1.59-3.21-2.77c-0.87-1.18-1.51-2.56-1.94-4.14c-0.42-1.58-0.64-3.31-0.64-5.17c0-1.89,0.19-3.64,0.57-5.24
	c0.38-1.6,0.98-2.98,1.81-4.14c0.83-1.16,1.9-2.06,3.21-2.72c1.31-0.65,2.87-0.98,4.7-0.98c1.21,0,2.28,0.2,3.21,0.59
	c0.93,0.39,1.71,0.85,2.35,1.37c0.64,0.52,1.14,1.05,1.52,1.59c0.38,0.54,0.61,0.95,0.71,1.25h0.1v-15.97h3.09V420H341.49
	L341.49,420z M341.1,403.95c-0.26-1.23-0.68-2.35-1.25-3.38c-0.57-1.03-1.33-1.87-2.28-2.52c-0.95-0.65-2.11-0.98-3.48-0.98
	c-1.47,0-2.68,0.32-3.63,0.96c-0.95,0.64-1.71,1.45-2.28,2.45c-0.57,1-0.96,2.12-1.18,3.36c-0.21,1.24-0.32,2.47-0.32,3.68
	c0,1.21,0.11,2.43,0.32,3.68c0.21,1.24,0.6,2.36,1.18,3.36c0.57,1,1.33,1.81,2.28,2.45c0.95,0.64,2.16,0.96,3.63,0.96
	c1.37,0,2.53-0.33,3.48-0.98c0.95-0.65,1.71-1.5,2.28-2.52c0.57-1.03,0.99-2.16,1.25-3.38c0.26-1.23,0.39-2.41,0.39-3.55
	C341.49,406.36,341.36,405.18,341.1,403.95L341.1,403.95z M361.92,420v-24.99h3.09V420H361.92L361.92,420z M361.92,384.23h3.09v4.12
	h-3.09V384.23L361.92,384.23z M389.02,420v-15.19c0-2.35-0.46-4.23-1.37-5.63c-0.92-1.4-2.43-2.11-4.56-2.11
	c-1.4,0-2.58,0.28-3.53,0.83c-0.95,0.55-1.71,1.27-2.28,2.16c-0.57,0.88-0.98,1.86-1.23,2.94c-0.25,1.08-0.37,2.14-0.37,3.19V420
	h-3.09v-19.11c0-0.95-0.01-1.91-0.02-2.89c-0.02-0.98-0.07-1.98-0.17-2.99h2.99v4.46h0.1c0.26-0.55,0.59-1.13,0.98-1.74
	c0.39-0.6,0.9-1.15,1.52-1.64c0.62-0.49,1.38-0.89,2.28-1.2c0.9-0.31,2-0.46,3.31-0.46c1.53,0,2.84,0.24,3.92,0.73
	c1.08,0.49,1.96,1.16,2.65,2.01c0.68,0.85,1.18,1.86,1.49,3.04c0.31,1.18,0.47,2.45,0.47,3.82V420H389.02L389.02,420z
	 M405.48,416.74c0.49,0.8,1.36,1.2,2.6,1.2c0.59,0,1.1-0.06,1.52-0.17c0.42-0.12,0.86-0.25,1.32-0.42l0.2,2.55
	c-0.36,0.16-0.89,0.32-1.59,0.47c-0.7,0.15-1.43,0.22-2.18,0.22c-1.37,0-2.44-0.22-3.21-0.66c-0.77-0.44-1.33-1.04-1.69-1.79
	c-0.36-0.75-0.58-1.63-0.66-2.65c-0.08-1.01-0.12-2.09-0.12-3.23v-14.6h-4.9v-2.65h4.9v-6.03l3.09-1.08v7.11h5.68v2.65h-5.68v16.17
	C404.75,414.97,404.99,415.94,405.48,416.74L405.48,416.74z M417.29,408.39c0,1.34,0.18,2.59,0.54,3.75
	c0.36,1.16,0.88,2.17,1.57,3.02c0.69,0.85,1.54,1.53,2.57,2.03c1.03,0.51,2.21,0.76,3.55,0.76c0.55,0,1.17-0.06,1.84-0.17
	c0.67-0.12,1.32-0.25,1.96-0.42c0.64-0.16,1.24-0.36,1.81-0.59c0.57-0.23,1.04-0.46,1.4-0.69v3.14c-1.08,0.46-2.27,0.8-3.58,1.03
	c-1.31,0.23-2.53,0.34-3.68,0.34c-2.06,0-3.81-0.33-5.27-0.98c-1.45-0.65-2.63-1.57-3.53-2.75c-0.9-1.18-1.55-2.56-1.96-4.16
	c-0.41-1.6-0.61-3.33-0.61-5.2c0-1.89,0.25-3.65,0.76-5.27c0.51-1.62,1.22-3,2.13-4.14c0.91-1.14,2.03-2.04,3.33-2.7
	c1.31-0.65,2.74-0.98,4.31-0.98c1.77,0,3.28,0.33,4.53,1c1.26,0.67,2.29,1.57,3.09,2.69c0.8,1.13,1.39,2.44,1.76,3.95
	c0.38,1.5,0.56,3.09,0.56,4.75v1.57H417.29L417.29,408.39z M430.67,402.56c-0.23-1.05-0.6-1.98-1.1-2.79
	c-0.51-0.81-1.17-1.47-1.98-1.96c-0.82-0.49-1.8-0.73-2.94-0.73c-1.14,0-2.16,0.26-3.06,0.78c-0.9,0.52-1.67,1.19-2.3,2.01
	c-0.64,0.82-1.13,1.75-1.47,2.79c-0.34,1.05-0.51,2.07-0.51,3.09h13.72C431.01,404.66,430.89,403.6,430.67,402.56L430.67,402.56z
	 M449.39,397.66c-1.24,0-2.26,0.31-3.06,0.93c-0.8,0.62-1.43,1.41-1.89,2.38c-0.46,0.97-0.78,2.04-0.98,3.24
	c-0.2,1.19-0.29,2.34-0.29,3.45V420h-3.09V400.6c0-0.68,0-1.27,0-1.76s-0.01-0.95-0.02-1.37c-0.02-0.42-0.04-0.82-0.07-1.2
	c-0.03-0.38-0.07-0.79-0.1-1.25h3.09v4.8h0.1c0.29-0.68,0.64-1.35,1.03-2.01c0.39-0.65,0.86-1.23,1.4-1.74
	c0.54-0.51,1.14-0.91,1.81-1.2c0.67-0.29,1.4-0.44,2.18-0.44c0.36,0,0.74,0.03,1.15,0.1c0.41,0.07,0.74,0.13,1,0.2v3.23
	C450.98,397.75,450.23,397.66,449.39,397.66L449.39,397.66z M473.49,420v-15.19c0-2.35-0.46-4.23-1.37-5.63
	c-0.92-1.4-2.43-2.11-4.56-2.11c-1.41,0-2.58,0.28-3.53,0.83c-0.95,0.55-1.71,1.27-2.28,2.16c-0.57,0.88-0.98,1.86-1.23,2.94
	c-0.25,1.08-0.37,2.14-0.37,3.19V420h-3.09v-19.11c0-0.95-0.01-1.91-0.02-2.89c-0.02-0.98-0.07-1.98-0.17-2.99h2.99v4.46h0.1
	c0.26-0.55,0.59-1.13,0.98-1.74c0.39-0.6,0.9-1.15,1.52-1.64c0.62-0.49,1.38-0.89,2.28-1.2c0.9-0.31,2-0.46,3.31-0.46
	c1.53,0,2.84,0.24,3.92,0.73c1.08,0.49,1.96,1.16,2.65,2.01c0.68,0.85,1.18,1.86,1.49,3.04c0.31,1.18,0.47,2.45,0.47,3.82V420
	H473.49L473.49,420z M485.64,408.39c0,1.34,0.18,2.59,0.54,3.75c0.36,1.16,0.88,2.17,1.57,3.02c0.69,0.85,1.54,1.53,2.57,2.03
	c1.03,0.51,2.21,0.76,3.55,0.76c0.55,0,1.17-0.06,1.84-0.17c0.67-0.12,1.32-0.25,1.96-0.42c0.64-0.16,1.24-0.36,1.81-0.59
	c0.57-0.23,1.04-0.46,1.4-0.69v3.14c-1.08,0.46-2.27,0.8-3.58,1.03c-1.31,0.23-2.53,0.34-3.68,0.34c-2.06,0-3.81-0.33-5.27-0.98
	c-1.45-0.65-2.63-1.57-3.53-2.75c-0.9-1.18-1.55-2.56-1.96-4.16c-0.41-1.6-0.61-3.33-0.61-5.2c0-1.89,0.25-3.65,0.76-5.27
	c0.51-1.62,1.22-3,2.13-4.14c0.91-1.14,2.03-2.04,3.33-2.7c1.31-0.65,2.75-0.98,4.31-0.98c1.77,0,3.28,0.33,4.53,1
	c1.26,0.67,2.29,1.57,3.09,2.69c0.8,1.13,1.39,2.44,1.76,3.95c0.38,1.5,0.56,3.09,0.56,4.75v1.57H485.64L485.64,408.39z
	 M499.02,402.56c-0.23-1.05-0.6-1.98-1.1-2.79c-0.51-0.81-1.17-1.47-1.98-1.96c-0.82-0.49-1.8-0.73-2.94-0.73s-2.16,0.26-3.06,0.78
	c-0.9,0.52-1.66,1.19-2.3,2.01c-0.64,0.82-1.13,1.75-1.47,2.79c-0.34,1.05-0.52,2.07-0.52,3.09h13.72
	C499.36,404.66,499.25,403.6,499.02,402.56L499.02,402.56z M514.26,416.74c0.49,0.8,1.36,1.2,2.6,1.2c0.59,0,1.09-0.06,1.52-0.17
	c0.42-0.12,0.87-0.25,1.32-0.42l0.2,2.55c-0.36,0.16-0.89,0.32-1.59,0.47c-0.7,0.15-1.43,0.22-2.18,0.22
	c-1.37,0-2.44-0.22-3.21-0.66c-0.77-0.44-1.33-1.04-1.69-1.79c-0.36-0.75-0.58-1.63-0.66-2.65c-0.08-1.01-0.12-2.09-0.12-3.23v-14.6
	h-4.9v-2.65h4.9v-6.03l3.09-1.08v7.11h5.68v2.65h-5.68v16.17C513.52,414.97,513.77,415.94,514.26,416.74L514.26,416.74z M548.9,420
	v-4.02h-0.1c-0.36,0.75-0.83,1.41-1.4,1.99c-0.57,0.57-1.22,1.05-1.94,1.45c-0.72,0.39-1.47,0.68-2.25,0.88
	c-0.79,0.2-1.57,0.29-2.35,0.29c-1.76,0-3.18-0.26-4.26-0.78c-1.08-0.52-1.91-1.15-2.5-1.89c-0.59-0.73-0.98-1.51-1.18-2.33
	c-0.2-0.81-0.29-1.5-0.29-2.06c0-2.09,0.5-3.72,1.49-4.9c1-1.18,2.25-2.05,3.77-2.62c1.52-0.57,3.18-0.92,4.97-1.05
	c1.8-0.13,3.51-0.2,5.15-0.2h0.59v-1.27c0-2.16-0.42-3.76-1.27-4.83c-0.85-1.06-2.32-1.59-4.41-1.59c-1.31,0-2.57,0.15-3.8,0.46
	c-1.23,0.31-2.41,0.84-3.55,1.59v-2.99c0.49-0.23,1.04-0.45,1.64-0.66c0.6-0.21,1.24-0.39,1.91-0.54c0.67-0.15,1.33-0.27,1.98-0.37
	c0.65-0.1,1.26-0.15,1.81-0.15c3.1,0,5.34,0.73,6.71,2.2c1.37,1.47,2.06,3.84,2.06,7.11v11.02c0,1.01,0.01,1.93,0.02,2.75
	c0.01,0.82,0.09,1.65,0.22,2.5H548.9L548.9,420z M548.61,407.41h-0.88c-1.34,0-2.7,0.06-4.09,0.17c-1.39,0.12-2.65,0.38-3.77,0.78
	c-1.13,0.41-2.05,1.01-2.77,1.81c-0.72,0.8-1.08,1.89-1.08,3.26c0,1.63,0.51,2.79,1.52,3.48c1.01,0.68,2.24,1.03,3.67,1.03
	c1.8,0,3.2-0.34,4.22-1.03c1.01-0.69,1.75-1.51,2.2-2.47c0.46-0.96,0.73-1.95,0.83-2.96c0.1-1.01,0.15-1.86,0.15-2.55V407.41
	L548.61,407.41z M572.64,397.44c-0.93-0.25-1.82-0.37-2.67-0.37c-1.5,0-2.84,0.26-4.02,0.78c-1.18,0.52-2.17,1.24-2.97,2.16
	c-0.8,0.92-1.4,2.02-1.81,3.31c-0.41,1.29-0.61,2.69-0.61,4.19c0,1.44,0.2,2.79,0.61,4.04c0.41,1.26,1,2.36,1.79,3.31
	c0.78,0.95,1.74,1.7,2.87,2.25c1.13,0.55,2.39,0.83,3.8,0.83c0.98,0,1.93-0.1,2.84-0.29c0.92-0.2,1.85-0.47,2.79-0.83l0.29,2.89
	c-1.05,0.36-2.08,0.6-3.11,0.71c-1.03,0.11-2.13,0.17-3.31,0.17c-2.03,0-3.78-0.35-5.27-1.05c-1.49-0.7-2.73-1.66-3.72-2.87
	c-1-1.21-1.74-2.6-2.23-4.19c-0.49-1.58-0.73-3.24-0.73-4.97c0-1.93,0.29-3.69,0.88-5.29c0.59-1.6,1.42-2.98,2.5-4.14
	s2.38-2.06,3.9-2.7c1.52-0.64,3.21-0.95,5.07-0.95c1.5,0,2.77,0.12,3.8,0.37c1.03,0.25,1.77,0.45,2.23,0.61l-0.25,2.94
	C574.46,397.98,573.57,397.68,572.64,397.44L572.64,397.44z M597.51,430.29v-14.55h-0.1c-0.75,1.63-1.75,2.85-2.99,3.65
	c-1.24,0.8-2.84,1.2-4.8,1.2c-1.73,0-3.24-0.34-4.51-1c-1.27-0.67-2.34-1.59-3.21-2.77c-0.87-1.18-1.51-2.56-1.94-4.14
	c-0.42-1.58-0.64-3.31-0.64-5.17c0-1.89,0.19-3.64,0.56-5.24c0.38-1.6,0.98-2.98,1.81-4.14c0.83-1.16,1.9-2.06,3.21-2.72
	c1.31-0.65,2.87-0.98,4.7-0.98c1.31,0,2.43,0.2,3.36,0.61c0.93,0.41,1.7,0.87,2.3,1.4c0.6,0.52,1.07,1.04,1.4,1.54
	c0.33,0.51,0.57,0.87,0.73,1.1h0.1v-4.07h3.09v35.28H597.51L597.51,430.29z M597.12,403.95c-0.26-1.23-0.68-2.35-1.25-3.38
	c-0.57-1.03-1.33-1.87-2.28-2.52c-0.95-0.65-2.11-0.98-3.48-0.98c-1.47,0-2.68,0.32-3.63,0.96c-0.95,0.64-1.71,1.45-2.28,2.45
	c-0.57,1-0.96,2.12-1.18,3.36c-0.21,1.24-0.32,2.47-0.32,3.68c0,1.21,0.11,2.43,0.32,3.68c0.21,1.24,0.6,2.36,1.18,3.36
	c0.57,1,1.33,1.81,2.28,2.45c0.95,0.64,2.16,0.96,3.63,0.96c1.37,0,2.53-0.33,3.48-0.98c0.95-0.65,1.71-1.5,2.28-2.52
	c0.57-1.03,0.99-2.16,1.25-3.38c0.26-1.23,0.39-2.41,0.39-3.55C597.51,406.36,597.38,405.18,597.12,403.95L597.12,403.95z
	 M624.75,420v-4.46h-0.1c-0.26,0.55-0.59,1.13-0.98,1.74c-0.39,0.6-0.9,1.15-1.52,1.64c-0.62,0.49-1.38,0.89-2.28,1.2
	c-0.9,0.31-2,0.47-3.31,0.47c-1.54,0-2.84-0.25-3.92-0.74c-1.08-0.49-1.96-1.16-2.65-2.01c-0.69-0.85-1.18-1.86-1.5-3.04
	c-0.31-1.18-0.46-2.45-0.46-3.82v-15.97h3.09v15.19c0,2.35,0.46,4.23,1.37,5.63c0.91,1.4,2.43,2.11,4.56,2.11
	c1.4,0,2.58-0.28,3.53-0.83c0.95-0.55,1.71-1.27,2.28-2.16c0.57-0.88,0.98-1.86,1.23-2.94c0.24-1.08,0.37-2.14,0.37-3.18v-13.82
	h3.09v19.11c0,0.95,0.01,1.91,0.02,2.89c0.01,0.98,0.07,1.98,0.17,2.99H624.75L624.75,420z M635.29,420v-24.99h3.09V420H635.29
	L635.29,420z M635.29,384.23h3.09v4.12h-3.09V384.23L635.29,384.23z M655.48,397.66c-1.24,0-2.26,0.31-3.06,0.93
	c-0.8,0.62-1.43,1.41-1.89,2.38c-0.46,0.97-0.78,2.04-0.98,3.24c-0.2,1.19-0.29,2.34-0.29,3.45V420h-3.09V400.6
	c0-0.68,0-1.27,0-1.76s-0.01-0.95-0.02-1.37c-0.02-0.42-0.04-0.82-0.07-1.2c-0.03-0.38-0.07-0.79-0.1-1.25h3.09v4.8h0.1
	c0.29-0.68,0.64-1.35,1.03-2.01c0.39-0.65,0.86-1.23,1.4-1.74c0.54-0.51,1.14-0.91,1.81-1.2c0.67-0.29,1.4-0.44,2.18-0.44
	c0.36,0,0.74,0.03,1.15,0.1c0.41,0.07,0.74,0.13,1.01,0.2v3.23C657.07,397.75,656.32,397.66,655.48,397.66L655.48,397.66z
	 M662.48,420v-24.99h3.09V420H662.48L662.48,420z M662.48,384.23h3.09v4.12h-3.09V384.23L662.48,384.23z M689.77,420v-15.19
	c0-2.35-0.46-4.23-1.37-5.63c-0.92-1.4-2.43-2.11-4.56-2.11c-1.4,0-2.58,0.28-3.53,0.83c-0.95,0.55-1.71,1.27-2.28,2.16
	c-0.57,0.88-0.98,1.86-1.23,2.94c-0.25,1.08-0.37,2.14-0.37,3.19V420h-3.09v-19.11c0-0.95-0.01-1.91-0.02-2.89
	c-0.02-0.98-0.07-1.98-0.17-2.99h2.99v4.46h0.1c0.26-0.55,0.59-1.13,0.98-1.74c0.39-0.6,0.9-1.15,1.52-1.64
	c0.62-0.49,1.38-0.89,2.28-1.2c0.9-0.31,2-0.46,3.31-0.46c1.53,0,2.84,0.24,3.92,0.73c1.08,0.49,1.96,1.16,2.65,2.01
	c0.68,0.85,1.18,1.86,1.49,3.04c0.31,1.18,0.47,2.45,0.47,3.82V420H689.77L689.77,420z M719.79,422.84
	c-0.41,1.53-1.08,2.87-2.01,4.02c-0.93,1.14-2.14,2.05-3.63,2.72c-1.49,0.67-3.31,1-5.46,1c-1.67,0-3.18-0.17-4.53-0.51
	c-1.36-0.34-2.36-0.61-3.01-0.81l0.25-3.09c0.95,0.49,2.06,0.91,3.36,1.25c1.29,0.34,2.62,0.52,3.99,0.52c1.99,0,3.56-0.34,4.7-1.01
	c1.14-0.67,2.01-1.59,2.6-2.77c0.59-1.18,0.95-2.54,1.1-4.09c0.15-1.55,0.22-3.21,0.22-4.97h-0.1c-0.85,1.83-1.93,3.1-3.23,3.82
	c-1.31,0.72-2.76,1.08-4.36,1.08c-1.99,0-3.67-0.39-5.02-1.18c-1.36-0.78-2.44-1.78-3.26-2.99c-0.82-1.21-1.4-2.56-1.74-4.04
	c-0.34-1.48-0.51-2.92-0.51-4.29c0-1.89,0.19-3.64,0.56-5.24c0.38-1.6,0.98-2.98,1.81-4.14c0.83-1.16,1.9-2.06,3.21-2.72
	c1.31-0.65,2.87-0.98,4.7-0.98c0.82,0,1.58,0.04,2.28,0.12c0.7,0.08,1.36,0.25,1.98,0.49c0.62,0.24,1.22,0.59,1.79,1.03
	c0.57,0.44,1.15,1.04,1.74,1.79h0.1v-2.84h3.09v22.93C720.4,419.67,720.2,421.31,719.79,422.84L719.79,422.84z M716.94,403.34
	c-0.25-1.27-0.65-2.38-1.23-3.31c-0.57-0.93-1.33-1.66-2.28-2.18c-0.95-0.52-2.12-0.78-3.53-0.78c-1.47,0-2.68,0.32-3.63,0.96
	c-0.95,0.64-1.71,1.45-2.28,2.45c-0.57,1-0.96,2.12-1.18,3.36c-0.21,1.24-0.32,2.47-0.32,3.68c0,1.24,0.13,2.45,0.39,3.63
	c0.26,1.18,0.68,2.22,1.25,3.14c0.57,0.92,1.32,1.66,2.23,2.23c0.91,0.57,2.03,0.86,3.33,0.86c1.4,0,2.59-0.3,3.55-0.91
	c0.96-0.6,1.75-1.38,2.35-2.33c0.6-0.95,1.04-2,1.3-3.16c0.26-1.16,0.39-2.31,0.39-3.45C717.31,406,717.19,404.61,716.94,403.34
	L716.94,403.34z"/>
<path class="st1" d="M41.22,341.08H16.88V365H3.15v-72.49h37.75c15.29,0,20.18,10.71,20.18,24.86
	C61.08,329.85,55.15,341.08,41.22,341.08L41.22,341.08z M37.37,304.16H16.88v25.48h20.18c5.72,0,8.94-4.16,8.94-12.38
	C46,308.42,42.99,304.16,37.37,304.16L37.37,304.16z M106.42,333.49c4.99,1.77,11.54,10.3,24.23,31.51h-16.95
	c-11.34-19.87-18.1-27.67-22.78-27.67h-9.67V365H67.53v-72.49h37.75c15.29,0,20.18,9.46,20.18,21.11
	C125.46,324.02,120.88,332.97,106.42,333.49L106.42,333.49z M102.06,304.16h-20.8V326h20.49c5.3,0,8.42-3.54,8.42-10.61
	C110.17,307.8,107.15,304.16,102.06,304.16L102.06,304.16z M166.22,366.46c-23.09,0-34.53-8.42-34.53-38.38
	c0-29.43,11.54-37.34,34.53-37.34c22.98,0,34.42,7.9,34.42,37.34C200.65,358.03,189.21,366.46,166.22,366.46L166.22,366.46z
	 M166.22,303.12c-15.91,0-19.87,3.22-19.87,25.17c0,21.84,3.95,25.79,19.87,25.79c15.91,0,19.86-3.95,19.86-25.79
	C186.09,306.34,182.14,303.12,166.22,303.12L166.22,303.12z M242.56,303.22c-15.81,0-21.74,2.7-21.74,24.96s5.93,25.69,21.74,25.69
	c4.89,0,11.65-0.94,15.39-2.29l3.02,12.27c-5.62,1.56-14.15,2.6-20.8,2.6c-22.98,0-34.01-8.84-34.01-38.38
	c0-29.64,11.02-37.34,34.01-37.34c6.66,0,15.19,1.14,20.8,2.7l-3.02,12.06C254.21,304.16,247.45,303.22,242.56,303.22L242.56,303.22
	z M318.37,353.14V365h-52.62v-72.49h52.62v11.85h-38.9v16.74h27.77v11.75h-27.77v20.28H318.37L318.37,353.14z M351.44,303.22
	c-11.54,0-16.33,2.39-16.33,9.47c0,5.51,2.7,8.01,15.91,9.26c16.85,1.77,24.34,8.01,24.34,21.74c0,17.06-10.4,22.78-31.31,22.78
	c-8.01,0-16.74-1.25-22.57-3.22l3.02-11.85c4.58,1.46,12.27,2.6,19.34,2.6c11.55,0,16.74-2.08,16.74-9.57
	c0-5.41-2.6-8.84-16.54-10.09c-16.02-1.56-23.5-6.55-23.5-19.97c0-17.06,10.61-23.61,30.89-23.61c7.91,0,16.43,1.35,22.15,3.22
	l-3.02,11.86C366.53,304.36,358.73,303.22,351.44,303.22L351.44,303.22z M410.52,303.22c-11.54,0-16.33,2.39-16.33,9.47
	c0,5.51,2.7,8.01,15.91,9.26c16.85,1.77,24.34,8.01,24.34,21.74c0,17.06-10.4,22.78-31.3,22.78c-8.01,0-16.74-1.25-22.57-3.22
	l3.02-11.85c4.58,1.46,12.27,2.6,19.35,2.6c11.54,0,16.74-2.08,16.74-9.57c0-5.41-2.6-8.84-16.54-10.09
	c-16.02-1.56-23.51-6.55-23.51-19.97c0-17.06,10.61-23.61,30.89-23.61c7.9,0,16.43,1.35,22.15,3.22l-3.02,11.86
	C425.6,304.36,417.8,303.22,410.52,303.22L410.52,303.22z M442.75,365v-72.49h13.73V365H442.75L442.75,365z M514.52,365
	c-9.78-18.1-20.59-36.61-31.93-54.6V365h-13.42v-72.49h17.99c10.5,16.54,21.01,34.63,30.47,52.31v-52.31h13.62V365H514.52
	L514.52,365z M570.36,334.22v-11.55h29.85v40.67c-5.93,1.87-17.37,3.12-25.79,3.12c-22.98,0-34.01-8.84-34.01-38.38
	c0-29.64,12.38-37.34,35.99-37.34c6.55,0,16.22,1.14,21.84,2.7l-2.81,11.96c-3.85-1.35-13.1-2.19-17.99-2.19
	c-16.43,0-22.36,2.7-22.36,24.96s5.93,25.79,21.74,25.79c3.43,0,7.18-0.52,9.36-1.04v-18.72H570.36L570.36,334.22z"/>
<path class="st2" d="M611.17,365.93v-12.49h10.41v12.49H611.17L611.17,365.93z M676.6,365.93h-11.27l-17.82-27.57l-6.45,6.2v21.38
	h-9.14v-74.45h9.14v42.45L662.68,312h11.83l-20.62,20.01L676.6,365.93L676.6,365.93z M721.15,358.06v7.87h-47.73v-7.41l34.33-39.41
	c-3.89,0.2-7.33,0.31-10.31,0.31h-21.99V312h44.08v6.04l-29.2,34.23l-5.64,6.25c4.1-0.31,7.94-0.46,11.53-0.46H721.15L721.15,358.06
	z"/>
</svg>
