<?xml version="1.0" encoding="utf-8"?>
<!-- Generator: Adobe Illustrator 19.1.0, SVG Export Plug-In . SVG Version: 6.00 Build 0)  -->
<svg version="1.1" id="Слой_1" xmlns="http://www.w3.org/2000/svg" xmlns:xlink="http://www.w3.org/1999/xlink" x="0px" y="0px"
	 viewBox="0 0 500 500" style="enable-background:new 0 0 500 500;" xml:space="preserve">
<style type="text/css">
	.st0{fill-rule:evenodd;clip-rule:evenodd;fill:#ffffff;}
</style>
<path class="st0" d="M490,436c-0.5,29.4-24.5,53-54,53v1H174v0c-29.7-0.3-53.7-24.3-54-54h0V285c0-29.8,24.2-54,54-54h262
	c29.8,0,54,24.2,54,54L490,436L490,436L490,436z M460,285c0-13.3-10.7-24-24-24H174c-13.3,0-24,10.7-24,24v22h310V285L460,285z
	 M460,361H150v75c0,13.3,10.7,24,24,24h262c13.3,0,24-10.7,24-24V361L460,361z M83,285v34.4c-16.6-6.7-29.9-21-34.3-39.8L15.3,138.5
	C8,107.9,27,77.2,57.6,69.9L306.7,11c30.6-7.2,61.3,11.7,68.6,42.3L408.6,194H174C123.7,194,83,234.7,83,285L83,285z M291.7,168.7
	l64.2-15.2l-15.2-64.2l-64.2,15.2L291.7,168.7L291.7,168.7z"/>
</svg>
