<?xml version="1.0" encoding="utf-8"?>
<!-- Generator: Adobe Illustrator 19.1.0, SVG Export Plug-In . SVG Version: 6.00 Build 0)  -->
<svg version="1.1" id="Слой_1" xmlns="http://www.w3.org/2000/svg" xmlns:xlink="http://www.w3.org/1999/xlink" x="0px" y="0px"
	 viewBox="0 0 500 500" style="enable-background:new 0 0 500 500;" xml:space="preserve">
<style type="text/css">
	.st0{fill-rule:evenodd;clip-rule:evenodd;fill:#111212;}
</style>
<path class="st0" d="M411,490H88c-23.2,0-42-18.8-42-42V52c0-23.2,18.8-42,42-42h323c23.2,0,42,18.8,42,42v396
	C453,471.2,434.2,490,411,490L411,490z M415,52c0-2.2-1.8-4-4-4H88c-2.2,0-4,1.8-4,4v396c0,2.2,1.8,4,4,4h323c2.2,0,4-1.8,4-4V52
	L415,52z M343,361h37v37h-37V361L343,361z M343,287h37v37h-37V287L343,287z M343,213h37v37h-37V213L343,213z M355,159H144
	c-13.8,0-25-11.2-25-25v-7c0-13.8,11.2-25,25-25h211c13.8,0,25,11.2,25,25v7C380,147.8,368.8,159,355,159L355,159z M306,250H119v-37
	h187V250L306,250z M232,324H119v-37h113V324L232,324z M269,398H119v-37h150V398L269,398z"/>
</svg>
