<?xml version="1.0" encoding="utf-8"?>
<!-- Generator: Adobe Illustrator 19.1.0, SVG Export Plug-In . SVG Version: 6.00 Build 0)  -->
<svg version="1.1" id="Слой_1" xmlns="http://www.w3.org/2000/svg" xmlns:xlink="http://www.w3.org/1999/xlink" x="0px" y="0px"
	 viewBox="0 0 500 500" style="enable-background:new 0 0 500 500;" xml:space="preserve">
<style type="text/css">
	.st0{fill-rule:evenodd;clip-rule:evenodd;fill:#f75b18;}
</style>
<path class="st0" d="M428.3,480.3H145.8H84.4V240.4h61.4h282.6h61.4v239.8H428.3L428.3,480.3z M461.2,312.4
	c-24,0-43.5-19.5-43.5-43.5H156.4c0,24-19.5,43.5-43.5,43.5v95.9c24,0,43.5,19.5,43.5,43.5h261.2c0-24,19.5-43.5,43.5-43.5V312.4
	L461.2,312.4z M407.2,382.8c-12.5,0-22.5-10-22.5-22.5c0-12.4,10.1-22.5,22.5-22.5c12.5,0,22.5,10,22.5,22.5
	C429.7,372.6,419.6,382.8,407.2,382.8L407.2,382.8z M287.1,421.8c-39.8,0-72.1-27.6-72.1-61.5c0-34,32.3-61.5,72.1-61.5
	s72.1,27.6,72.1,61.5C359.1,394.2,326.8,421.8,287.1,421.8L287.1,421.8z M166.9,382.8c-12.5,0-22.5-10-22.5-22.5
	c0-12.4,10.1-22.5,22.5-22.5c12.5,0,22.5,10,22.5,22.5C189.5,372.6,179.4,382.8,166.9,382.8L166.9,382.8z M374.7,162.6
	c6,10.9,2.1,24.7-8.9,30.6c-11,6-24.6,1.9-30.6-8.8c-6-10.9-2-24.6,8.9-30.6C355.1,147.8,368.7,151.8,374.7,162.6L374.7,162.6z
	 M312.9,196.6c2.4,4.3,4.2,9,5.3,13.8H187.4c6.8-13.2,18-25,32.7-33.1C254.9,158.1,296.5,166.8,312.9,196.6L312.9,196.6z
	 M425.5,189.6l-46.2-84.1c-21,11.5-47.6,3.9-59.2-17.2L97.4,210.4H84.5c-16.5,0-30,13.5-30,30v56.2l-40.2-73.2l53.9-29.5L315.9,58.3
	l53.7-29.5l99.8,181.7h-62.9C410.3,201.9,416.8,194.4,425.5,189.6L425.5,189.6z"/>
</svg>
