<?xml version="1.0" encoding="utf-8"?>
<!-- Generator: Adobe Illustrator 19.1.0, SVG Export Plug-In . SVG Version: 6.00 Build 0)  -->
<svg version="1.1" id="Слой_1" xmlns="http://www.w3.org/2000/svg" xmlns:xlink="http://www.w3.org/1999/xlink" x="0px" y="0px"
	 viewBox="0 0 360 270" style="enable-background:new 0 0 360 270;" xml:space="preserve">
<style type="text/css">
	.st0{fill-rule:evenodd;clip-rule:evenodd;fill:#111212;}
</style>
<path class="st0" d="M0,270V0h360v270H0L0,270z M323.4,247l-98.5-98.5l-21,21l0.1,0.1c-6.2,6.2-14.7,10-24,10c-9.4,0-17.9-3.8-24-10
	l0,0L135.4,149l-98,98H323.4L323.4,247z M23,234.6l99-99l-99-99V234.6L23,234.6z M36.3,23h287.3L190.5,156.1l0.1,0.1
	c-2.7,2.7-6.5,4.4-10.6,4.4c-4.1,0-7.9-1.7-10.6-4.4L36.3,23L36.3,23z M337,36.4l-98.7,98.7l98.7,98.7V36.4L337,36.4z"/>
</svg>
