<?xml version="1.0" encoding="utf-8"?>
<!-- Generator: Adobe Illustrator 19.1.0, SVG Export Plug-In . SVG Version: 6.00 Build 0)  -->
<svg version="1.1" id="Слой_1" xmlns="http://www.w3.org/2000/svg" xmlns:xlink="http://www.w3.org/1999/xlink" x="0px" y="0px"
	 viewBox="-117 254.6 360 332.6" style="enable-background:new -117 254.6 360 332.6;" xml:space="preserve">
<style type="text/css">
	.st0{fill:#fff;}
</style>
<path class="st0" d="M25,458.8l-48.3,48.3c-0.1-0.1-0.2-0.2-0.4-0.3c-55.3-55.3-81.9-128.5-79.8-201c-0.3-5,1.3-10,4.6-14.1
	c5.2-6.6,12.3-14.8,19.9-21.3c6.3-5.5,11.7-9.4,15.7-12c4.8-3.4,10.7-4.5,16.2-3.3c4.4,0.7,9.5,1.7,13.4,3.4
	c4.5,1.9,9.1,4.4,12.5,6.5l0,0c1.4,0.8,2.7,1.9,4,3.1c2.5,2.5,4.2,5.6,5.2,8.8c2.8,7.8,7.1,20.3,10.7,33.8
	C2,323.1,4,335.6,5.2,344.3c1.3,6.4-0.5,13.4-5.5,18.4l0,0v0.1l-13.3,13.3c-0.5,0.4-0.9,0.8-1.3,1.2c-4.7,4.7-5.9,11.5-3.7,17.3
	l-0.1,0.1c10,23.3,24.4,45.1,43.4,64.1C24.8,458.5,24.9,458.6,25,458.8L25,458.8z M225.4,547c-2.6,4-6.6,9.4-12,15.7
	c-6.5,7.6-14.8,14.7-21.2,19.8c-4,3.4-9.1,4.9-14.1,4.6c-72.5,2.1-145.7-24.5-201-79.8c-0.1-0.1-0.2-0.2-0.3-0.4l48.3-48.3
	c0.1,0.1,0.2,0.2,0.3,0.4c19,19,40.8,33.4,64.1,43.4l0.1-0.1c5.8,2.2,12.6,1,17.3-3.7c0.4-0.4,0.8-0.9,1.2-1.3l13.3-13.3h0.1l0,0
	c5-5,11.9-6.8,18.4-5.5c8.7,1.2,21.2,3.2,33.6,6.5c13.4,3.6,26,7.8,33.8,10.7c3.2,0.9,6.3,2.6,8.8,5.2c1.2,1.2,2.2,2.5,3.1,4l0,0
	c2,3.5,4.5,8,6.5,12.5c1.7,3.8,2.7,9,3.4,13.4C230,536.3,228.9,542.3,225.4,547L225.4,547z"/>
</svg>
