<?xml version="1.0" encoding="utf-8"?>
<!-- Generator: Adobe Illustrator 19.1.0, SVG Export Plug-In . SVG Version: 6.00 Build 0)  -->
<svg version="1.1" id="Слой_1" xmlns="http://www.w3.org/2000/svg" xmlns:xlink="http://www.w3.org/1999/xlink" x="0px" y="0px"
	 viewBox="0 0 360 456" style="enable-background:new 0 0 360 456;" xml:space="preserve">
<style type="text/css">
	.st0{fill-rule:evenodd;clip-rule:evenodd;fill:#111212;}
</style>
<path class="st0" d="M289,456H72c-38.7,0-70-31.3-70-70V70C2,31.3,33.3,0,72,0h144.9l0,0l0,0h0v0c10.3,0,19.7,4.2,26.4,11.1h0
	l104.3,102.8l0,0c6.9,6.6,11.2,15.8,11.4,26l0,0V386C359,424.7,327.7,456,289,456L289,456z M301.3,138c13.4,0-69.3,0-69.3,0
	c-7.2,0-13-5.8-13-13c0,0,0-81.1,0-67.3C219,44,208,33,194.4,33c0,0,0,0,0,0l0,0H72c-20.4,0-37,16.6-37,37v316c0,20.4,16.6,37,37,37
	h217c20.4,0,37-16.6,37-37c0,0,0-236.1,0-223.3C326,149,315,138,301.3,138L301.3,138z M284,192.5c0,8-6.5,14.5-14.5,14.5h-178
	c-8,0-14.5-6.5-14.5-14.5c0-8,6.5-14.5,14.5-14.5h178C277.5,178,284,184.5,284,192.5L284,192.5z M91.5,249h143
	c8,0,14.5,6.5,14.5,14.5c0,8-6.5,14.5-14.5,14.5h-143c-8,0-14.5-6.5-14.5-14.5C77,255.5,83.5,249,91.5,249L91.5,249z M91.5,320h178
	c8,0,14.5,6.5,14.5,14.5s-6.5,14.5-14.5,14.5h-178c-8,0-14.5-6.5-14.5-14.5S83.5,320,91.5,320L91.5,320z"/>
</svg>
