<?xml version="1.0" encoding="utf-8"?>
<!-- Generator: Adobe Illustrator 21.1.0, SVG Export Plug-In . SVG Version: 6.00 Build 0)  -->
<svg version="1.1" id="Слой_1" xmlns="http://www.w3.org/2000/svg" xmlns:xlink="http://www.w3.org/1999/xlink" x="0px" y="0px"
	 viewBox="0 0 239 241" style="enable-background:new 0 0 239 241;" xml:space="preserve">
<style type="text/css">
	.st0{fill-rule:evenodd;clip-rule:evenodd;fill:#111212;}
</style>
<path class="st0" d="M238.8,127.1c-0.8,13.2-3.8,25.9-8.9,38.1c-4.2,10.1-9.5,19.5-16.4,28c-4.3,5.4-9,10.5-14.1,15.1
	c-11.5,10.5-24.7,18.4-39.4,23.7c-7.1,2.5-14.3,4.5-21.7,5.5c-4.6,0.6-9.1,1.1-13.7,1.3c-4.5,0.2-9,0.4-13.4,0
	c-6.4-0.7-12.8-1.8-19.2-3.1c-8.6-1.8-16.7-5-24.6-8.7c-0.1,0-0.2-0.1-0.3-0.2c-2.9-2.2-5.8-2-9.2-1.1c-15.3,4.2-30.6,8.1-45.9,12.2
	c-4,1-8,2.1-12.2,3.2c0.9-3.5,1.8-6.9,2.7-10.2c4.6-16.8,9.2-33.6,13.8-50.4c0.2-0.7,0.1-1.7-0.3-2.4c-6.4-11.2-10.7-23.2-13.1-35.8
	c-0.9-4.5-1.4-9.1-1.7-13.7c-0.3-5.4-0.6-10.8-0.3-16.2c0.4-7.8,1.6-15.5,3.6-23.1c2.5-9.7,6.2-18.9,11-27.6
	c3.4-6.2,7.3-12.1,11.9-17.5c3.2-3.7,6.3-7.4,9.8-10.8c7.2-7,15.2-13,23.9-17.9c10.4-5.9,21.4-10.2,33-12.8c4.4-1,8.8-1.6,13.3-2
	c5.7-0.5,11.5-0.8,17.3-0.6c5.5,0.2,11,1.1,16.5,1.9c8.5,1.2,16.6,3.9,24.6,7.2c8.6,3.6,16.6,8.2,24.1,13.7
	c6.6,4.8,12.6,10.3,18.1,16.3c8.3,9.1,15.1,19.4,20.2,30.7c4,8.8,7,17.9,8.6,27.5c0.7,4.2,1.3,8.5,1.6,12.7
	C238.9,115.7,239.2,121.4,238.8,127.1L238.8,127.1z M218.8,112.5c-0.3-3.9-0.6-7.9-1.4-11.8c-2.1-11.1-6-21.5-11.7-31.3
	c-6.2-10.6-14.1-19.8-23.6-27.5c-6.9-5.6-14.6-10.2-22.7-13.8c-12.4-5.4-25.4-7.9-38.8-8.2c-3.3-0.1-6.7,0.2-10,0.6
	c-4.5,0.6-9,1.2-13.4,2.1C87,25,77.4,29,68.5,34.5c-10.3,6.3-19.2,14.2-26.6,23.8c-5.6,7.2-10.1,15-13.6,23.5
	c-4.4,10.7-6.8,21.9-7.4,33.4c-0.3,5.9-0.1,11.8,0.9,17.6c0.9,4.7,1.7,9.3,2.9,13.9c2.7,10.3,7.3,19.7,13.1,28.5
	c0.3,0.4,0.4,1.2,0.3,1.7c-0.5,2.3-1.1,4.5-1.8,6.8c-2.6,9.6-5.3,19.3-7.9,29c0.5,0,0.8,0.1,1,0c11.7-3.1,23.3-6.2,35-9.2
	c0.8-0.2,2-0.2,2.7,0.2c8,4.9,16.4,8.8,25.4,11.4c6.9,2,14,3.4,21.1,3.7c8.3,0.4,16.6,0.2,24.8-1.5c7.8-1.6,15.3-3.8,22.5-7.2
	c8.5-3.9,16.2-8.9,23.4-14.9c5.6-4.8,10.6-10.2,15.1-16.1c5.7-7.6,10.3-15.9,13.6-24.9c3.7-9.8,5.7-20,6.1-30.5
	C219.3,120,219,116.2,218.8,112.5L218.8,112.5z M178.4,161.4c-1,3.9-4,6.5-7,8.8c-3.6,2.7-7.5,5-12,5.8c-2.8,0.5-5.7,0.7-7.6,0.9
	c-6.7-0.1-12-1.6-17.1-3.6c-6.8-2.6-13.6-5.2-20.2-8.2c-5.6-2.6-10.6-6.2-15.3-10.2c-2.7-2.3-5.4-4.5-7.9-6.9
	c-7.6-7.4-14-15.7-20-24.4c-4.5-6.4-8.3-13.1-10.4-20.8c-3.1-11.3-1.6-21.7,5.7-31c1.4-1.8,3-3.4,4.6-5c2.5-2.4,5.7-2.7,9-2.6
	c1.3,0.1,2.6,0.3,3.9,0.2c2.5-0.2,4.2,1.1,5.1,3.2c2,4.4,3.7,8.8,5.6,13.2c1.5,3.7,3,7.4,4.6,11.1c0.8,1.8,0.8,3.4,0,5.2
	c-1.3,2.9-3.3,5.3-5.3,7.6c-1,1.2-2.1,2.3-3.1,3.5c-1.2,1.4-1.3,3-0.3,4.6c2.5,3.8,4.9,7.7,7.6,11.2c2.6,3.3,5.6,6.5,8.7,9.4
	c5.9,5.6,12.6,10,20,13.4c2.1,0.9,4.2,1.8,6.3,2.7c2,0.8,3.5-0.1,4.7-1.5c3.4-4.1,6.6-8.3,9.9-12.5c1.1-1.4,2.8-1.9,4.8-1.1
	c4.1,1.7,8.2,3.5,12.2,5.5c4.3,2,8.4,4.4,12.7,6.3c2.3,1,3,2.8,2.8,4.8C180,154.5,179.3,158,178.4,161.4L178.4,161.4z"/>
</svg>
