<?xml version="1.0" encoding="utf-8"?>
<!-- Generator: Adobe Illustrator 21.1.0, SVG Export Plug-In . SVG Version: 6.00 Build 0)  -->
<svg version="1.1" id="Слой_1" xmlns="http://www.w3.org/2000/svg" xmlns:xlink="http://www.w3.org/1999/xlink" x="0px" y="0px"
	 viewBox="-40 -80 400 400" style="enable-background:new 0 0 350 350; width: 26px; height: 26px;" xml:space="preserve">
<style type="text/css">
	.st0{fill-rule:evenodd;clip-rule:evenodd;fill:#f75b18;}
</style>
<path class="st0" d="M120,240C53.7,240,0,186.3,0,120S53.7,0,120,0c66.3,0,120,53.7,120,120S186.3,240,120,240L120,240z M120,31
	c-49.2,0-89,39.8-89,89s39.8,89,89,89c49.2,0,89-39.8,89-89S169.2,31,120,31L120,31z M140.1,114c0.6,1.9,0.9,3.9,0.9,6
	c0,11.6-9.4,21-21,21c-8,0-14.9-4.5-18.5-11H79c-5.5,0-10-4.5-10-10c0-5.5,4.5-10,10-10h22.5c3.6-6.6,10.5-11,18.5-11
	c2.1,0,4.1,0.3,6,0.9l28.5-28.5c3.9-3.9,10.2-3.9,14.1,0c3.9,3.9,3.9,10.2,0,14.1L140.1,114L140.1,114z"/>
</svg>
