<?xml version="1.0" encoding="utf-8"?>
<!-- Generator: Adobe Illustrator 21.1.0, SVG Export Plug-In . SVG Version: 6.00 Build 0)  -->
<svg version="1.1" id="Слой_1" xmlns="http://www.w3.org/2000/svg" xmlns:xlink="http://www.w3.org/1999/xlink" x="0px" y="0px"
	 viewBox="-40 -100 400 400" style="enable-background:new 0 0 220 180.5;" xml:space="preserve">
<style type="text/css">
	.st0{fill-rule:evenodd;clip-rule:evenodd;fill:#f75b18;}
</style>
<path class="st0" d="M216.5,37.5L130.9,123l-7.1,7.1l-9.9,9.9c-4.7,4.7-12.3,4.7-17,0L44.5,87.5c-4.7-4.7-4.7-12.3,0-17l17-17
	c4.7-4.7,12.3-4.7,17,0l27,27l77.1-77.1c4.7-4.7,12.3-4.7,17,0l17,17C221.2,25.2,221.2,32.8,216.5,37.5L216.5,37.5z M38,20.5
	c-9.9,0-18,8.1-18,18v104c0,9.9,8.1,18,18,18h104c9.9,0,18-8.1,18-18v-22.9l20-20v42.9c0,21-17,38-38,38H38c-21,0-38-17-38-38v-104
	c0-21,17-38,38-38h104c5.4,0,10.5,1.1,15.1,3.1l-16.9,16.9H38L38,20.5z"/>
</svg>
