<?xml version="1.0" encoding="utf-8"?>
<!-- Generator: Adobe Illustrator 19.1.0, SVG Export Plug-In . SVG Version: 6.00 Build 0)  -->
<svg version="1.1" id="Слой_1" xmlns="http://www.w3.org/2000/svg" xmlns:xlink="http://www.w3.org/1999/xlink" x="0px" y="0px"
	 viewBox="0 0 166 160" style="enable-background:new 0 0 166 160;" xml:space="preserve">
<style type="text/css">
	.st0{fill-rule:evenodd;clip-rule:evenodd;fill:#fff;}
</style>
<path class="st0" d="M163.7,160h-5.8H144h-30h-9H84.7c1.5-3,2.3-6.4,2.3-10v-27c0-9.1-5.3-17-13-20.7V97c0-15.5-9.5-28.7-23-34.2
	c-1.9-4.2-3-8.8-3-13.8V33C48,14.8,62.8,0,81,0c18.2,0,33,14.8,33,33v16c0,7.4-2.4,14.1-6.5,19.6c-0.8,1-1.6,2.1-2.5,3v20.1
	c0,0,1.2,4.7,3.3,6c11.3,6.7,47.7,25.3,47.7,25.3c5.5,3.3,10,10.4,10,15.9v9v7v5H163.7L163.7,160z M61,97v16h3c5.5,0,10,4.5,10,10
	v27c0,5.5-4.5,10-10,10H10c-5.5,0-10-4.5-10-10v-27c0-5.5,4.5-10,10-10h3V97c0-13.3,10.7-24,24-24C50.3,73,61,83.7,61,97L61,97z
	 M32,142.5v1.5c0,2.8,2.2,5,5,5c2.8,0,5-2.2,5-5v-1.5c2.4-1.6,4-4.4,4-7.5c0-5-4-9-9-9c-5,0-9,4-9,9C28,138.1,29.6,140.9,32,142.5
	L32,142.5z M48,97c0-6.1-4.9-11-11-11c-6.1,0-11,4.9-11,11v16h22V97L48,97z"/>
</svg>
