<?xml version="1.0" encoding="utf-8"?>
<!-- Generator: Adobe Illustrator 19.1.0, SVG Export Plug-In . SVG Version: 6.00 Build 0)  -->
<svg version="1.1" id="Слой_1" xmlns="http://www.w3.org/2000/svg" xmlns:xlink="http://www.w3.org/1999/xlink" x="0px" y="0px"
	 viewBox="0 0 170 160" style="enable-background:new 0 0 170 160;" xml:space="preserve">
<style type="text/css">
	.st0{fill-rule:evenodd;clip-rule:evenodd;fill:#fff;}
</style>
<path class="st0" d="M167.7,159.9L85,160l-82.7-0.1H0v-5v-7v-9c0-5.5,4.5-12.6,10-15.9c0,0,36.4-18.6,47.7-25.3c2.1-1.3,3.3-6,3.3-6
	V71.6c-0.9-0.9-1.7-2-2.5-3C54.4,63.1,52,56.4,52,49V33C52,14.8,66.8,0,85,0c18.2,0,33,14.8,33,33v16c0,7.4-2.4,14.1-6.5,19.6
	c-0.8,1-1.6,2.1-2.5,3v20.1c0,0,1.2,4.7,3.3,6C123.6,104.4,160,123,160,123c5.5,3.3,10,10.4,10,15.9v9v7v5H167.7L167.7,159.9z"/>
</svg>
