<?xml version="1.0" encoding="utf-8"?>
<!-- Generator: Adobe Illustrator 19.1.0, SVG Export Plug-In . SVG Version: 6.00 Build 0)  -->
<svg version="1.1" id="Слой_1" xmlns="http://www.w3.org/2000/svg" xmlns:xlink="http://www.w3.org/1999/xlink" x="0px" y="0px"
	 viewBox="0 0 340 239.6" style="enable-background:new 0 0 340 239.6;" xml:space="preserve">
<g>
	<defs>
		<path id="SVGID_1_" d="M201,60c0,6.2,0.7,12.2,2,18h-105l9.7,26.3h106.5c12.9,19.5,34.1,33,58.5,35.3l-13,34.7
			c-1.7,4.4-5.3,7.5-9.5,8.6c-1.3,0.4-2.8,0.7-4.2,0.7H117.2c-4.2,0-7.9-1.8-10.5-4.7c-1.4-1.4-2.5-3.1-3.2-5L56.4,46H14
			C6.3,46,0,39.7,0,32c0-7.8,6.3-14,14-14h50.4c0.7,0,1.5,0.1,2.2,0.2c5.6,0.1,10.8,3.6,12.8,9.2l8.3,22.6h113.9
			C201.2,53.2,201,56.6,201,60L201,60z M126.6,155.5h110.3l8.7-23.2H118.1L126.6,155.5L126.6,155.5z M143.1,199.4
			c11.1,0,20.1,9,20.1,20.1c0,11.1-9,20.1-20.1,20.1c-11.1,0-20.1-9-20.1-20.1C123,208.4,132,199.4,143.1,199.4L143.1,199.4z
			 M218.2,199.4c11.1,0,20.1,9,20.1,20.1c0,11.1-9,20.1-20.1,20.1c-11.1,0-20.1-9-20.1-20.1C198.2,208.4,207.2,199.4,218.2,199.4
			L218.2,199.4z"/>
	</defs>
	<use xlink:href="#SVGID_1_"  style="overflow:visible;fill-rule:evenodd;clip-rule:evenodd;fill:#f75b18;"/>
	<clipPath id="SVGID_2_">
		<use xlink:href="#SVGID_1_"  style="overflow:visible;"/>
	</clipPath>
</g>
<g>
	<defs>
		<path id="SVGID_3_" d="M280.5,0.4c32.9,0,59.5,26.8,59.5,59.8c0,33-26.6,59.8-59.5,59.8c-32.9,0-59.5-26.8-59.5-59.8
			C221,27.1,247.7,0.4,280.5,0.4L280.5,0.4z"/>
	</defs>
	<use xlink:href="#SVGID_3_"  style="overflow:visible;fill-rule:evenodd;clip-rule:evenodd;fill:#f75b18;"/>
	<clipPath id="SVGID_4_">
		<use xlink:href="#SVGID_3_"  style="overflow:visible;"/>
	</clipPath>
</g>
<g>
	<defs>
		<path id="SVGID_5_" d="M239.3,50.7c0,0,6.8,14.5,15.2,25.7c10.3,13.7,22.6,24.7,22.6,24.7c0,0,10.8-12.6,29-34.4
			c12.1-14.5,21.4-28.6,21.4-28.6c0,0-13.8-0.7-28.9,8.4C282.2,56.3,277,63.3,277,63.3c0,0-7.5-6.2-16.1-9
			C250.8,50.9,239.3,50.7,239.3,50.7L239.3,50.7z"/>
	</defs>
	<use xlink:href="#SVGID_5_"  style="overflow:visible;fill-rule:evenodd;clip-rule:evenodd;fill:#FFFFFF;"/>
	<clipPath id="SVGID_6_">
		<use xlink:href="#SVGID_5_"  style="overflow:visible;"/>
	</clipPath>
</g>
</svg>
