<?xml version="1.0" encoding="utf-8"?>
<!-- Generator: Adobe Illustrator 19.1.0, SVG Export Plug-In . SVG Version: 6.00 Build 0)  -->
<svg version="1.1" id="Слой_1" xmlns="http://www.w3.org/2000/svg" xmlns:xlink="http://www.w3.org/1999/xlink" x="0px" y="0px"
	 viewBox="0 0 340 239.2" style="enable-background:new 0 0 340 239.2;" xml:space="preserve">
<style type="text/css">
	.st0{fill:#111212;}
	.st1{fill:#f75b18;}
	.st2{fill-rule:evenodd;clip-rule:evenodd;fill:#FFFFFF;}
</style>
<path class="st0" d="M201,59.6c0,6.2,0.7,12.2,2,18H98l9.7,26.3h106.5c12.9,19.5,34.1,33,58.5,35.3l-13,34.7c-1.7,4.4-5.3,7.5-9.5,8.6
	c-1.3,0.4-2.8,0.7-4.2,0.7H117.2c-4.2,0-7.9-1.8-10.5-4.7c-1.4-1.4-2.5-3.1-3.2-5L56.4,45.6H14c-7.7,0-14-6.3-14-14
	c0-7.8,6.3-14,14-14h50.4c0.7,0,1.5,0.1,2.2,0.2c5.6,0.1,10.8,3.6,12.8,9.2l8.3,22.6h113.9C201.2,52.8,201,56.2,201,59.6L201,59.6
	L201,59.6z M126.6,155.1h110.3l8.7-23.2H118.1L126.6,155.1L126.6,155.1L126.6,155.1z M143.1,199c11.1,0,20.1,9,20.1,20.1
	c0,11.1-9,20.1-20.1,20.1c-11.1,0-20.1-9-20.1-20.1C123,208,132,199,143.1,199L143.1,199L143.1,199z M218.2,199
	c11.1,0,20.1,9,20.1,20.1c0,11.1-9,20.1-20.1,20.1c-11.1,0-20.1-9-20.1-20.1C198.2,208,207.2,199,218.2,199L218.2,199L218.2,199z"/>
<path class="st1" d="M280.5,0C313.4,0,340,26.8,340,59.8c0,33-26.6,59.8-59.5,59.8c-32.9,0-59.5-26.8-59.5-59.8
	C221,26.7,247.7,0,280.5,0L280.5,0L280.5,0z"/>
<path class="st2" d="M315.5,48.3l-40.3,40.3c-2,2-5.1,2-7.1,0L245.5,66c-2-2-2-5.1,0-7.1l4.9-4.9c2-2,5.1-2,7.1,0l14.1,14.1
	l31.8-31.8c2-2,5.1-2,7.1,0l4.9,4.9C317.5,43.2,317.5,46.3,315.5,48.3L315.5,48.3z"/>
</svg>
