<?xml version="1.0" encoding="utf-8"?>
<!-- Generator: Adobe Illustrator 19.1.0, SVG Export Plug-In . SVG Version: 6.00 Build 0)  -->
<svg version="1.1" id="Слой_1" xmlns="http://www.w3.org/2000/svg" xmlns:xlink="http://www.w3.org/1999/xlink" x="0px" y="0px"
	 viewBox="0 0 317 273" style="enable-background:new 0 0 317 273;" xml:space="preserve">
<g>
	<defs>
		<path id="SVGID_1_" d="M78.5,157C35.1,157,0,121.9,0,78.5C0,35.1,35.1,0,78.5,0C121.9,0,157,35.1,157,78.5
			C157,121.9,121.9,157,78.5,157L78.5,157z M78.5,26C49.5,26,26,49.5,26,78.5c0,29,23.5,52.5,52.5,52.5c29,0,52.5-23.5,52.5-52.5
			C131,49.5,107.5,26,78.5,26L78.5,26z"/>
	</defs>
	<use xlink:href="#SVGID_1_"  style="overflow:visible;fill-rule:evenodd;clip-rule:evenodd;fill:#111212;"/>
	<clipPath id="SVGID_2_">
		<use xlink:href="#SVGID_1_"  style="overflow:visible;"/>
	</clipPath>
</g>
<g>
	<defs>
		<path id="SVGID_3_" d="M307,239h-13.8c-4-20-21.5-35-42.7-35c-21.1,0-38.7,15-42.7,35H207c-5.5,0-10-4.5-10-10V108
			c0-5.5,4.5-10,10-10h58c3.3,0,6.2,1.6,8,4l0,0l0-0.2l40,50.3c2.4,1.8,3.9,4.7,3.9,7.9v69C317,234.5,312.5,239,307,239L307,239z
			 M293.7,159.8l-28.9-36.4c-0.7-2-2.5-3.4-4.7-3.4h-27c-2.8,0-5,2.2-5,5v39c0,2.8,2.2,5,5,5h58.6l0-0.1c2.5-0.3,4.4-2.4,4.4-4.9
			C296,162.2,295.1,160.7,293.7,159.8L293.7,159.8z M174,239h-23.8c-4-20-21.5-35-42.7-35c-21.1,0-38.7,15-42.7,35H40
			c-5.5,0-10-4.5-10-10v-70.5C44.1,167,60.7,172,78.5,172c51.6,0,93.5-41.9,93.5-93.5c0-1.2,0-2.3-0.1-3.5h2.1c5.5,0,10,4.5,10,10
			v144C184,234.5,179.5,239,174,239L174,239z M100.2,111.5c-4.4,2.9-10.3,1.7-13.2-2.7L76.6,92.9c-7.1-0.9-12.6-7-12.6-14.4
			c0-4.4,1.9-8.3,5-10.9V48.5c0-5.2,4.3-9.5,9.5-9.5c5.2,0,9.5,4.3,9.5,9.5v19.1c3.1,2.7,5,6.6,5,10.9c0,1.4-0.2,2.7-0.6,3.9
			l10.5,15.9C105.8,102.7,104.6,108.6,100.2,111.5L100.2,111.5z M107.5,222c14.1,0,25.5,11.4,25.5,25.5c0,14.1-11.4,25.5-25.5,25.5
			C93.4,273,82,261.6,82,247.5C82,233.4,93.4,222,107.5,222L107.5,222z M250.5,222c14.1,0,25.5,11.4,25.5,25.5
			c0,14.1-11.4,25.5-25.5,25.5c-14.1,0-25.5-11.4-25.5-25.5C225,233.4,236.4,222,250.5,222L250.5,222z"/>
	</defs>
	<use xlink:href="#SVGID_3_"  style="overflow:visible;fill-rule:evenodd;clip-rule:evenodd;fill:#111212;"/>
	<clipPath id="SVGID_4_">
		<use xlink:href="#SVGID_3_"  style="overflow:visible;"/>
	</clipPath>
</g>
</svg>
