<?xml version="1.0" encoding="utf-8"?>
<!-- Generator: Adobe Illustrator 19.1.0, SVG Export Plug-In . SVG Version: 6.00 Build 0)  -->
<svg version="1.1" id="Слой_1" xmlns="http://www.w3.org/2000/svg" xmlns:xlink="http://www.w3.org/1999/xlink" x="0px" y="0px"
	 viewBox="0 0 167.1 160" style="enable-background:new 0 0 167.1 160;" xml:space="preserve">
<style type="text/css">
	.st0{fill-rule:evenodd;clip-rule:evenodd;fill:#ffffff;}
</style>
<path class="st0" d="M121,89.7V140c0,11-9,20-20,20H20c-11,0-20-9-20-20V85v-8.3V48v-3.2c0-4.4,0.6-8.6,5-13.1L31.8,5c4.5-4.4,8.7-5,13.1-5H48
	h28.9H84h17c9,0,16.6,6,19.1,14.2L109,25.3V20c0-4.4-3.6-8-8-8H48v24c0,6.6-5.4,12-12,12H12v92c0,4.4,3.6,8,8,8h81c4.4,0,8-3.6,8-8
	v-38.3L121,89.7L121,89.7z M162.4,34.2l-6.4,6.4l-24-24l6.4-6.4c6.2-6.2,16.4-6.2,22.6,0l1.4,1.4C168.6,17.8,168.6,27.9,162.4,34.2
	L162.4,34.2z M138.3,34.2l12,12L86,110.5l-47.4,23.3L62,86.5l64.3-64.3l6.4,6.4L68.3,92.9l5.7,5.7L138.3,34.2L138.3,34.2z"/>
</svg>
