<?xml version="1.0" encoding="utf-8"?>
<!-- Generator: Adobe Illustrator 19.1.0, SVG Export Plug-In . SVG Version: 6.00 Build 0)  -->
<svg version="1.1" id="Слой_1" xmlns="http://www.w3.org/2000/svg" xmlns:xlink="http://www.w3.org/1999/xlink" x="0px" y="0px"
	 viewBox="0 0 242.6 228" style="enable-background:new 0 0 242.6 228;" xml:space="preserve">
<style type="text/css">
	.st0{fill:#fff;}
</style>
<path class="st0" d="M99.6,200c-55.2,0-100-44.8-100-100S44.4,0,99.6,0c55.2,0,100,44.8,100,100S154.8,200,99.6,200L99.6,200z
	 M99.6,20c-44.2,0-80,35.8-80,80c0,44.2,35.8,80,80,80s80-35.8,80-80C179.6,55.8,143.8,20,99.6,20L99.6,20z M221.4,228l-64.9-64.9
	l21.2-21.2l64.9,64.8L221.4,228L221.4,228z"/>
</svg>
