<?xml version="1.0" standalone="no"?>
<!DOCTYPE svg PUBLIC "-//W3C//DTD SVG 20010904//EN"
 "http://www.w3.org/TR/2001/REC-SVG-20010904/DTD/svg10.dtd">
<svg version="1.0" xmlns="http://www.w3.org/2000/svg"
 width="128.000000pt" height="127.000000pt" viewBox="0 0 128.000000 127.000000"
 preserveAspectRatio="xMidYMid meet">
<metadata>
Created by potrace 1.13, written by Peter Selinger 2001-2015
</metadata>
<g transform="translate(0.000000,127.000000) scale(0.100000,-0.100000)"
fill="#ed1c2d" stroke="none">
<path d="M573 1229 c-171 -29 -338 -152 -414 -304 -55 -111 -60 -149 -68 -440
-6 -240 -10 -280 -31 -357 -13 -48 -22 -90 -19 -92 2 -3 47 7 99 21 87 23 119
26 375 33 266 6 283 8 347 32 192 72 325 216 373 403 19 76 19 204 0 278 -76
291 -363 476 -662 426z"/>
</g>
</svg>
