<?xml version="1.0" encoding="utf-8"?>
<!-- Generator: Adobe Illustrator 19.1.0, SVG Export Plug-In . SVG Version: 6.00 Build 0)  -->
<svg version="1.1" id="Слой_1" xmlns="http://www.w3.org/2000/svg" xmlns:xlink="http://www.w3.org/1999/xlink" x="0px" y="0px"
	 viewBox="0 0 500 500" style="enable-background:new 0 0 500 500;" xml:space="preserve">
<style type="text/css">
	.st0{fill-rule:evenodd;clip-rule:evenodd;fill:#ffffff;}
</style>
<path class="st0" d="M434,256.6v75c0,11.8-8.4,31-19,42.9l-61.4,69.4l-0.3-0.1c-3.7,4.4-9.2,7.2-15.4,7.2H67c-11,0-20-9-20-20V259.2
	l-0.1,0.1c-9.9,2.7-18.9,5.8-26.8,1.9c-7.9-4-11.4-13-7.8-20.2l35.3-70.5c1-4.3,3.4-8.1,6.6-10.8l108.6-74.6
	c3.8-2.8,8.2-5.1,13.3-5.1h44.4L242,58l20.1,22h6.7L313,35l41,45h60c6.5,0,12.3,3.2,16,8l0,0c0,0,0.7,1,2,3l63,103L434,256.6
	L434,256.6z M84,414h238.5V191H84V414L84,414z M173,116.4L114.1,159h28.7l35.7-36.3C176.6,120.6,174.8,118.4,173,116.4L173,116.4z
	 M242,108l-50.1,51h96.6L242,108L242,108z M313,85l-24.1,24.5l42.4,47.7c1.8-2.8,25.5-24.1,25.5-24.1L313,85L313,85z M250,247h-91
	c-9.9,0-18-8.1-18-18c0-9.9,8.1-18,18-18h91c9.9,0,18,8.1,18,18C268,238.9,259.9,247,250,247L250,247z"/>
</svg>
