<?xml version="1.0" encoding="utf-8"?>
<!-- Generator: Adobe Illustrator 19.1.0, SVG Export Plug-In . SVG Version: 6.00 Build 0)  -->
<svg version="1.1" id="Слой_1" xmlns="http://www.w3.org/2000/svg" xmlns:xlink="http://www.w3.org/1999/xlink" x="0px" y="0px"
	 viewBox="0 0 500 500" style="enable-background:new 0 0 500 500;" xml:space="preserve">
<style type="text/css">
	.st0{fill-rule:evenodd;clip-rule:evenodd;fill:#f75b18;}
</style>
<path class="st0" d="M470,376h-16.4c-3.7-32.1-31-57-64.1-57c-33.1,0-60.3,24.9-64.1,57H193.6c-3.5-32.1-30.6-57-63.6-57
	s-60.1,24.9-63.6,57H30c-11,0-20-9-20-20V99c0-11,9-20,20-20h315.1L490,263.9V356C490,367,481,376,470,376L470,376z M356.9,135H305
	v111h138.9L356.9,135L356.9,135z M130,341c23.2,0,42,18.8,42,42s-18.8,42-42,42s-42-18.8-42-42S106.8,341,130,341L130,341z
	 M389.5,341c23.5,0,42.5,19,42.5,42.5c0,23.5-19,42.5-42.5,42.5c-23.5,0-42.5-19-42.5-42.5C347,360,366,341,389.5,341L389.5,341z"/>
</svg>
