<?xml version="1.0" encoding="utf-8"?>
<!-- Generator: Adobe Illustrator 19.1.0, SVG Export Plug-In . SVG Version: 6.00 Build 0)  -->
<svg version="1.1" id="Слой_1" xmlns="http://www.w3.org/2000/svg" xmlns:xlink="http://www.w3.org/1999/xlink" x="0px" y="0px"
	 viewBox="0 0 500 500" style="enable-background:new 0 0 500 500;" xml:space="preserve">
<style type="text/css">
	.st0{fill-rule:evenodd;clip-rule:evenodd;fill:#111212;}
</style>
<path class="st0" d="M288,487c0-91.5,0-183,0-264l0,0L45.9,126.5v205L288,447V487L10,351V102.5L238.5,14l250.9,88.8
	c0.2-0.1,0.4-0.2,0.6-0.3c0,82.1,0,165.4,0,248.9C422.7,396.5,355.3,441.8,288,487L288,487z M379.5,230.9
	c11.3-6.6,22.6-13.1,33.8-19.7c6.5-3.8,11.7-12.3,11.7-19.1c0-6.8-5.2-9.4-11.7-5.7c-11.3,6.4-22.6,12.8-33.8,19.3
	c-6.7,3.8-12.2,12.7-12.2,19.7C367.3,232.3,372.7,234.8,379.5,230.9L379.5,230.9z M297.3,207l70.9-36.9L152.8,86l-79.4,31.8
	L297.3,207L297.3,207z M238.6,51.7l-61.8,24.7l212.3,82.9l60.2-31.3L238.6,51.7L238.6,51.7z"/>
</svg>
