<?xml version="1.0" encoding="utf-8"?>
<!-- Generator: Adobe Illustrator 19.1.0, SVG Export Plug-In . SVG Version: 6.00 Build 0)  -->
<svg version="1.1" id="Слой_1" xmlns="http://www.w3.org/2000/svg" xmlns:xlink="http://www.w3.org/1999/xlink" x="0px" y="0px"
	 viewBox="0 0 500 500" style="enable-background:new 0 0 500 500;" xml:space="preserve">
<style type="text/css">
	.st0{fill-rule:evenodd;clip-rule:evenodd;fill:#ffffff;}
</style>
<path class="st0" d="M459.1,165.7H238.1l78.3,49.9h51.9l-42-33.1h123.4l-54.4,96.7l-6.3,10h-83.2L10,110.8h480L459.1,165.7
	L459.1,165.7z M63.9,327.8l-15.9,28.4l41.1-28.4h20.1l-43.6,29.7l6.2,34.6l60.5-64.3h16.2l-12.5,67.3l7.9-14l55.9-40.2h-31.7
	l7.6-13.1h52.5l-6.9,12.2l-57.5,42.1h36.3l-7.5,13.1h-73.2l2.8-12.6H97.5L86,395.2h-32l-4-29.4l-12.1,8l-12,21.4H10l37.9-67.4H63.9
	L63.9,327.8z M125.1,371.1l5.6-25.7l-23.3,25.7H125.1L125.1,371.1z M269.6,327.8c7.8,0,20.3,1.9,14.6,18.4c-2.4,6.9-12,25.9-40,25.9
	h-15.2l-13,23.1h-16l37.9-67.4H269.6L269.6,327.8z M248.9,359c11,0,15.7-5.2,17.3-9.9c2.2-6.3-0.9-8.2-7.1-8.2h-12.6L236.3,359
	H248.9L248.9,359z M332.6,325.9c18.8,0,26.1,10.3,20,27.8c-5.9,16.8-25.4,43.4-55.6,43.4l0,0c-27,0-23.4-19.6-20.5-27.8
	C282.4,352.6,302.3,325.9,332.6,325.9L332.6,325.9z M302.9,384c16.7,0,28.2-17.9,31.7-28.1c2.6-7.4,4-16.9-8.4-16.9
	c-16.7,0-28,17.7-31.6,28.1C291.2,376.6,292.3,384,302.9,384L302.9,384z M347.3,373.3h16.3c-0.7,1.1-1.1,2-1.5,3.1
	c-0.7,1.9-2.2,7.6,8.7,7.6c12.3,0,15.6-5.9,16.6-8.6c2.1-6.1-4.8-7-12.3-9.1c-8.3-2.3-17.2-5-12.7-18.1
	c4.5-12.9,17.1-22.3,38.5-22.3c7.8,0,23.9,1.2,18.6,16.3c-0.5,1.4-1.1,2.8-1.7,4.1h-15.2c0.3-0.6,0.5-1.1,0.7-1.6
	c1.5-4.4-2.8-5.7-7.9-5.7c-3.6,0-12.7,0.7-15,7.2c-1.4,4.1,1.3,5.7,9,7.6c15.3,3.8,20.1,7.8,16.6,18c-4.8,13.9-18.3,25.3-39.9,25.3
	c-13.7,0-26.3-3.6-20.9-18.8C345.6,376.7,346.3,375,347.3,373.3L347.3,373.3z M347.3,373.3L347.3,373.3L347.3,373.3L347.3,373.3
	L347.3,373.3z M425.8,340.9l7.4-13.1H490l-7.4,13.1h-20.4l-30.5,54.3h-16l30.5-54.3H425.8L425.8,340.9z"/>
</svg>
