<?xml version="1.0" encoding="utf-8"?>
<!-- Generator: Adobe Illustrator 21.1.0, SVG Export Plug-In . SVG Version: 6.00 Build 0)  -->
<svg version="1.1" id="Слой_1" xmlns="http://www.w3.org/2000/svg" xmlns:xlink="http://www.w3.org/1999/xlink" x="0px" y="0px"
	 viewBox="0 0 310 230" style="enable-background:new 0 0 310 230;" xml:space="preserve">
<style type="text/css">
	.st0{fill-rule:evenodd;clip-rule:evenodd;fill:#fff;}
</style>
<path class="st0" d="M14.5,29.1h43.8l48.6,132.7c0.7,2,1.9,3.7,3.3,5.2c2.7,3,6.5,4.9,10.8,4.9h133.2c1.5,0,3-0.2,4.4-0.7
	c4.4-1.2,8.1-4.4,9.8-8.9l40.7-109c2.8-7.5-1-15.9-8.5-18.8c-1.3-0.5-2.7-0.8-4-0.9c-1.1-0.3-2.3-0.4-3.6-0.4H90.6L82,9.7
	c-2.1-5.8-7.5-9.4-13.2-9.5C68.1,0.1,67.3,0,66.6,0H14.5C6.5,0,0,6.5,0,14.6C0,22.6,6.5,29.1,14.5,29.1L14.5,29.1z M122,118.7h131.7
	l-9,24H130.8L122,118.7L122,118.7z M274.8,62.3l-10.2,27.3H111.3l-10-27.3H274.8L274.8,62.3z M225.4,188.3
	c-11.4,0-20.7,9.3-20.7,20.9c0,11.5,9.3,20.9,20.7,20.9c11.5,0,20.7-9.3,20.7-20.9C246.1,197.6,236.9,188.3,225.4,188.3L225.4,188.3
	z M147.8,188.3c-11.4,0-20.7,9.3-20.7,20.9c0,11.5,9.3,20.9,20.7,20.9c11.4,0,20.7-9.3,20.7-20.9
	C168.5,197.6,159.2,188.3,147.8,188.3L147.8,188.3z"/>
</svg>
