<?xml version="1.0" encoding="utf-8"?>
<!-- Generator: Adobe Illustrator 19.1.0, SVG Export Plug-In . SVG Version: 6.00 Build 0)  -->
<svg version="1.1" id="Слой_1" xmlns="http://www.w3.org/2000/svg" xmlns:xlink="http://www.w3.org/1999/xlink" x="0px" y="0px"
	 viewBox="0 0 313 313" style="enable-background:new 0 0 313 313;" xml:space="preserve">
<style type="text/css">
	.st0{fill-rule:evenodd;clip-rule:evenodd;fill:#6a35b1;}
</style>
<path class="st0" d="M156.5,313C70.1,313,0,242.9,0,156.5S70.1,0,156.5,0C242.9,0,313,70.1,313,156.5S242.9,313,156.5,313L156.5,313
	z M156.7,29C86.2,29,29,86.2,29,156.8c0,70.6,57.2,127.7,127.7,127.7s127.8-57.2,127.8-127.7C284.5,86.2,227.3,29,156.7,29L156.7,29
	z M188.3,235.7L188.3,235.7l-36,15.7v0c-1.5,0.7-3.2,1-5,1c-7,0-12.8-5.7-12.8-12.7c0-0.7,0.1-1.4,0.2-2l0,0l0.1-0.3
	c0-0.2,0.1-0.3,0.1-0.5l17-83.7l-8.4,4.6h0c-1.8,1-3.9,1.6-6.1,1.6c-7,0-12.7-5.7-12.7-12.7c0-4.7,2.5-8.7,6.2-10.9l0,0l0.4-0.2
	c0,0,0.1,0,0.1,0l31.9-17.7c1.9-1.2,4.2-1.9,6.6-1.9c7,0,12.7,5.7,12.7,12.8c0,0.7-0.1,1.5-0.2,2.2h0l0,0c0,0.1-0.1,0.3-0.1,0.4
	l-17.6,86.9l12.9-5.7c1.6-0.7,3.3-1.1,5.2-1.1c7,0,12.8,5.7,12.8,12.7C195.5,229.3,192.5,233.7,188.3,235.7L188.3,235.7z M169.3,94
	c-9.8,0-17.8-7.9-17.8-17.8c0-9.8,8-17.8,17.8-17.8c9.8,0,17.7,7.9,17.7,17.8C187,86.1,179.1,94,169.3,94L169.3,94z"/>
</svg>
