<?xml version="1.0" standalone="no"?>
<!DOCTYPE svg PUBLIC "-//W3C//DTD SVG 20010904//EN"
 "http://www.w3.org/TR/2001/REC-SVG-20010904/DTD/svg10.dtd">
<svg version="1.0" xmlns="http://www.w3.org/2000/svg"
 width="10.000000pt" height="30.000000pt" viewBox="0 0 200.000000 300.000000"
 preserveAspectRatio="xMidYMid meet">
<metadata>
Created by potrace 1.13, written by Peter Selinger 2001-2015
</metadata>
<g transform="translate(0.000000,300.000000) scale(0.100000,-0.100000)"
fill="#a7a7a7" stroke="none">
<path d="M444 2794 c-8 -3 -10 -20 -7 -44 5 -38 2 -43 -63 -112 -64 -68 -71
-73 -112 -74 -26 0 -47 -7 -53 -15 -10 -15 -12 -152 -3 -185 5 -19 11 -21 48
-17 41 5 44 4 86 -48 24 -30 94 -106 155 -169 62 -63 165 -171 231 -240 65
-69 148 -154 185 -190 36 -36 77 -85 90 -110 31 -61 30 -134 -2 -187 -13 -21
-100 -117 -195 -213 -94 -96 -199 -206 -232 -244 -33 -38 -76 -81 -95 -97 -19
-15 -67 -67 -107 -115 l-74 -86 -42 5 c-37 4 -43 2 -48 -17 -9 -33 -7 -170 3
-185 6 -8 27 -15 53 -15 41 -1 48 -6 112 -74 65 -69 68 -74 63 -111 -6 -48 -1
-51 97 -51 48 0 79 5 92 15 11 8 14 15 7 15 -8 0 -13 13 -13 31 0 21 9 39 32
60 18 16 35 29 39 29 3 0 116 116 250 257 134 141 289 303 344 359 55 56 170
175 255 263 l155 162 43 -3 c29 -1 46 3 52 12 12 19 12 181 0 200 -6 10 -22
13 -50 11 -42 -3 -43 -2 -174 132 -118 122 -405 419 -656 681 -145 152 -222
228 -258 258 -23 19 -32 34 -32 57 0 18 5 31 13 31 7 0 4 7 -7 15 -19 14 -153
21 -182 9z"/>
</g>
</svg>
