<?xml version="1.0" encoding="utf-8"?>
<!-- Generator: Adobe Illustrator 16.0.0, SVG Export Plug-In . SVG Version: 6.00 Build 0)  -->
<!DOCTYPE svg PUBLIC "-//W3C//DTD SVG 1.1//EN" "http://www.w3.org/Graphics/SVG/1.1/DTD/svg11.dtd">
<svg version="1.1" id="Layer_1" xmlns="http://www.w3.org/2000/svg" xmlns:xlink="http://www.w3.org/1999/xlink" x="0px" y="0px"
	 width="180px" height="181px" viewBox="0 0 180 181" enable-background="new 0 0 180 181" xml:space="preserve">
<path fill-rule="evenodd" clip-rule="evenodd" fill="#D8AC78" d="M44.845,17.979c1.045-0.043,2.055,0.001,2.804,0.301
	c0.851,0.34,1.482,1.199,2.007,1.908c1.072,1.449,2.029,3.004,2.931,4.66c1.512,2.771,3.222,5.417,4.787,8.15
	c2.406,4.202,4.846,8.435,7.607,12.25c1.238,1.708,2.556,3.4,3.422,5.489c0.478,1.148,0.455,2.725,0.053,3.797
	c-0.491,1.312-1.431,2.262-2.201,3.306c-0.487,0.663-1.079,1.342-1.695,1.88c-0.8,0.702-1.461,1.58-2.274,2.277
	c-1.591,1.367-3.207,2.723-4.801,4.089c-0.733,0.628-1.376,1.375-2.099,2.007c-0.489,0.428-0.885,0.945-1.359,1.38
	c-1.243,1.144-2.907,3.082-3.178,5.108c-0.112,0.844,0.291,1.662,0.501,2.24c0.695,1.912,1.616,3.447,2.645,4.97
	c1.448,2.326,2.895,4.654,4.342,6.98c2.176,3.22,4.432,6.306,6.77,9.325c1.209,1.564,2.579,2.996,3.85,4.498
	c0.608,0.637,1.214,1.275,1.822,1.914c0.732,0.861,1.586,1.6,2.375,2.402c0.487,0.496,0.977,1.029,1.528,1.453
	c0.223,0.219,0.446,0.436,0.669,0.654c0.96,0.736,1.77,1.65,2.744,2.371c0.463,0.398,0.927,0.797,1.391,1.195
	c1.208,0.938,2.419,1.875,3.627,2.811c4.104,2.875,8.241,5.736,12.78,8.148c1.314,0.715,2.625,1.43,3.939,2.145
	c1.535,0.926,3.008,1.811,4.799,2.473c0.795,0.291,2.574,1.053,3.762,0.684c1.869-0.588,3.863-2.656,4.914-4.076
	c0.396-0.459,0.795-0.916,1.193-1.375c0.861-1.139,1.725-2.277,2.586-3.414c0.672-0.957,1.342-1.912,2.014-2.869
	c0.5-0.693,1.113-1.307,1.617-1.99c0.479-0.648,1.047-1.32,1.641-1.859c0.26-0.291,0.521-0.582,0.785-0.873
	c0.998-0.969,2.025-2.043,3.389-2.652c0.816-0.363,2.029-0.672,3.133-0.367c3.357,0.932,5.764,3.107,8.502,4.756
	c1.068,0.572,2.137,1.145,3.203,1.717c4.266,2.416,8.838,4.428,13.105,6.859c0.895,0.506,1.875,0.846,2.785,1.354
	c1.248,0.697,2.535,1.342,3.715,2.096c0.846,0.541,1.803,1.121,2.361,1.969c1.053,1.605,0.545,5.84,0.182,7.703
	c-0.131,0.826-0.264,1.652-0.396,2.477c-0.391,1.908-0.852,3.807-1.387,5.557c-0.232,0.764-0.447,1.533-0.795,2.209
	c-1.145,2.199-2.74,4.096-4.586,5.623c-2.637,2.184-5.479,4.1-8.516,5.926c-1.059,0.637-2.186,1.072-3.313,1.652
	c-1.174,0.604-2.547,1.203-3.867,1.613c-1.375,0.43-2.711,0.791-4.197,1.176c-0.914,0.236-1.947,0.367-2.924,0.566
	c-0.65,0.059-1.303,0.119-1.953,0.178c-0.941,0.182-2.416,0.234-3.365,0.113c-0.596-0.076-1.203,0.014-1.74-0.055
	c-1.135-0.146-2.178-0.074-3.229-0.287c-0.998-0.188-1.998-0.373-2.998-0.559c-1.828-0.48-3.652-0.938-5.467-1.396
	c-1.525-0.387-3.08-0.977-4.529-1.523c-0.822-0.266-1.646-0.533-2.469-0.801c-2.199-0.779-4.492-1.566-6.719-2.295
	c-10.251-3.355-18.942-8.441-26.953-14.236c-2.25-1.631-4.378-3.418-6.589-5.082c-0.869-0.738-1.74-1.473-2.609-2.209
	c-2.235-1.705-4.161-3.785-6.328-5.561c-0.498-0.479-0.995-0.957-1.492-1.436c-0.519-0.422-1.056-0.906-1.49-1.416
	c-0.415-0.4-0.828-0.801-1.243-1.199c-0.848-0.998-1.941-1.781-2.794-2.785c-0.696-0.697-1.391-1.395-2.087-2.094
	c-1.51-1.641-3.022-3.283-4.532-4.924c-1.49-1.775-3.08-3.484-4.507-5.32c-4.461-5.748-8.816-11.623-12.202-18.547
	c-0.543-1.109-1.105-2.268-1.668-3.387c-0.602-1.389-1.203-2.779-1.804-4.17c-0.722-1.838-1.442-3.675-2.165-5.512
	c-0.532-1.096-0.92-2.282-1.391-3.432c-1.101-2.689-2.115-5.402-3.055-8.341c-0.608-1.901-1.069-3.902-1.57-6.001
	c-0.13-0.923-0.259-1.847-0.39-2.771c-0.015-0.263-0.03-0.525-0.045-0.788c-0.125-0.674-0.122-1.456-0.147-2.214
	c-0.021-0.62-0.074-1.269-0.006-1.824c0.001-0.319,0.003-0.639,0.005-0.958c0.064-0.83,0.13-1.659,0.195-2.488
	c0.229-1.547,0.441-3.041,0.775-4.483c1.241-5.385,3.471-10.004,5.979-14.208c1.948-3.26,4.098-6.376,7.303-8.441
	c0.701-0.451,1.503-0.724,2.315-1.074c2.396-1.031,5.137-1.737,7.893-2.406c1.023-0.25,2.081-0.334,3.145-0.557
	C43.837,18.084,44.771,18.101,44.845,17.979L44.845,17.979z"/>
</svg>
