<?xml version="1.0" encoding="utf-8"?>
<!-- Generator: Adobe Illustrator 23.0.2, SVG Export Plug-In . SVG Version: 6.00 Build 0)  -->
<svg version="1.1" id="Слой_1" xmlns="http://www.w3.org/2000/svg" xmlns:xlink="http://www.w3.org/1999/xlink" x="0px" y="0px"
	 viewBox="0 0 240 230" style="enable-background:new 0 0 240 230;" xml:space="preserve">
<style type="text/css">
	.st0{fill-rule:evenodd;clip-rule:evenodd;fill:#f75b18;}
</style>
<polygon class="st0" points="231.11,177.22 222.22,177.22 213.33,177.22 204.45,177.22 195.56,177.22 186.67,177.22 177.78,177.22 
	168.89,177.22 160,177.22 151.11,177.22 142.22,177.22 133.33,177.22 124.44,177.22 115.56,177.22 106.67,177.22 97.78,177.22 
	88.89,177.22 80,177.22 71.11,177.22 62.22,177.22 53.33,177.22 44.44,177.22 35.55,177.22 26.67,177.22 17.78,177.22 8.89,177.22 
	0,177.22 0,141.67 0,52.78 8.89,52.78 8.89,141.67 17.78,141.67 17.78,52.78 26.67,52.78 26.67,106.11 35.55,106.11 35.55,52.78 
	44.44,52.78 44.44,106.11 53.33,106.11 53.33,52.78 62.22,52.78 62.22,106.11 71.11,106.11 71.11,52.78 80,52.78 80,106.11 
	88.89,106.11 88.89,52.78 97.78,52.78 97.78,141.67 106.67,141.67 106.67,52.78 115.56,52.78 115.56,106.11 124.44,106.11 
	124.44,52.78 133.33,52.78 133.33,106.11 142.22,106.11 142.22,52.78 151.11,52.78 151.11,106.11 160,106.11 160,52.78 
	168.89,52.78 168.89,106.11 177.78,106.11 177.78,52.78 186.67,52.78 186.67,141.67 195.56,141.67 195.56,106.11 195.56,52.78 
	204.45,52.78 204.45,106.11 213.33,106.11 213.33,52.78 222.22,52.78 222.22,106.11 231.11,106.11 231.11,52.78 240,52.78 
	240,177.22 231.11,177.22 "/>
</svg>
