<?xml version="1.0" encoding="utf-8"?>
<!-- Generator: Adobe Illustrator 19.1.0, SVG Export Plug-In . SVG Version: 6.00 Build 0)  -->
<svg version="1.1" id="Слой_1" xmlns="http://www.w3.org/2000/svg" xmlns:xlink="http://www.w3.org/1999/xlink" x="0px" y="0px"
	 viewBox="0 0 190 130" style="enable-background:new 0 0 190 130;" xml:space="preserve">
<style type="text/css">
	.st0{fill-rule:evenodd;clip-rule:evenodd;fill:#d9d9d9;}
</style>
<path class="st0" d="M40,130H10c-5.5,0-10-4.5-10-10V50c0-5.5,4.5-10,10-10h30c5.5,0,10,4.5,10,10v70C50,125.5,45.5,130,40,130L40,130z M180,130
	h-30c-5.5,0-10-4.5-10-10V50c0-5.5,4.5-10,10-10h30c5.5,0,10,4.5,10,10v70C190,125.5,185.5,130,180,130L180,130z M110,130H80
	c-5.5,0-10-4.5-10-10V10c0-5.5,4.5-10,10-10h30c5.5,0,10,4.5,10,10v110C120,125.5,115.5,130,110,130L110,130z"/>
</svg>
