<?xml version="1.0" encoding="utf-8"?>
<!-- Generator: Adobe Illustrator 19.1.0, SVG Export Plug-In . SVG Version: 6.00 Build 0)  -->
<svg version="1.1" id="Слой_1" xmlns="http://www.w3.org/2000/svg" xmlns:xlink="http://www.w3.org/1999/xlink" x="0px" y="0px"
	 viewBox="-202 309.5 190 224.1" style="enable-background:new -202 309.5 190 224.1;" xml:space="preserve">
<style type="text/css">
	.st0{fill:#111212;}
</style>
<path class="st0" d="M-41.8,365.7c-0.6,0.8-1.3,1.4-2.2,1.8c19.6,17.4,32,42.8,32,71.1c0,52.5-42.5,95-95,95s-95-42.5-95-95
	c0-48.4,36.2-88.3,83-94.2v-14.9h-3c-5.5,0-10-4.5-10-10s4.5-10,10-10h30c5.5,0,10,4.5,10,10s-4.5,10-10,10h-3v14.8
	c11.6,1.5,22.6,5,32.6,10.3c0-0.9,0.3-1.8,0.9-2.6l9.1-13.1c1.6-2.3,4.7-2.8,7-1.3l11.5,8c2.3,1.6,2.8,4.7,1.3,7L-41.8,365.7
	L-41.8,365.7z M-107,365.5c-23.9,0-45.2,11.5-58.5,29.3l55.9,28.9c0.9-0.2,1.7-0.2,2.6-0.2c8.3,0,15,6.7,15,15c0,8.3-6.7,15-15,15
	c-7.4,0-13.5-5.3-14.7-12.3l-46.6-42.3c-7.4,11.4-11.7,25-11.7,39.6c0,40.3,32.7,73,73,73s73-32.7,73-73S-66.7,365.5-107,365.5
	L-107,365.5z"/>
</svg>
