<?xml version="1.0" encoding="utf-8"?>
<!-- Generator: Adobe Illustrator 23.0.2, SVG Export Plug-In . SVG Version: 6.00 Build 0)  -->
<svg version="1.1" id="Слой_1" xmlns="http://www.w3.org/2000/svg" xmlns:xlink="http://www.w3.org/1999/xlink" x="0px" y="0px"
	 viewBox="0 0 240 230" style="enable-background:new 0 0 240 230;" xml:space="preserve">
<style type="text/css">
	.st0{fill-rule:evenodd;clip-rule:evenodd;fill:#111212;}
</style>
<path class="st0" d="M34.4,222V8h136.96l34.24,34.24V222H34.4L34.4,222L34.4,222z M120,50.8c-37.66,0-68.48,30.82-68.48,68.48
	c0,37.66,30.82,68.48,68.48,68.48s68.48-30.82,68.48-68.48C188.48,81.62,157.66,50.8,120,50.8L120,50.8L120,50.8z M96.89,162.08
	h10.27v-42.8H96.89v-8.56h35.95v6.85v1.71v42.8h10.27v8.56H96.89V162.08L96.89,162.08L96.89,162.08z M120,102.16
	c-9.42,0-17.12-7.7-17.12-17.12c0-9.42,7.7-17.12,17.12-17.12c9.42,0,17.12,7.7,17.12,17.12C137.12,94.46,129.42,102.16,120,102.16
	L120,102.16L120,102.16z"/>
</svg>
