<?xml version="1.0" encoding="utf-8"?>
<!-- Generator: Adobe Illustrator 19.1.0, SVG Export Plug-In . SVG Version: 6.00 Build 0)  -->
<svg version="1.1" id="Слой_1" xmlns="http://www.w3.org/2000/svg" xmlns:xlink="http://www.w3.org/1999/xlink" x="0px" y="0px"
	 viewBox="0 0 173.8 185.9" style="enable-background:new 0 0 173.8 185.9;" xml:space="preserve">
<style type="text/css">
	.st0{fill-rule:evenodd;clip-rule:evenodd;fill:#111212;}
</style>
<path class="st0" d="M112.1,139.8c6.4-3.9,4-8.2,17.2-18.2c5.1-3.9,35.5,15.2,41.8,26.3c5.5,9.9,3,12-13.3,26.8
	c-11.1,10.1-59.1,31.5-119.7-37.8c-60.9-69-33.4-113.8-22-123.5C32.9-0.9,35.3-3.1,44.4,3.7c10.3,7.6,25.2,40.3,20.7,44.8
	c-11.7,11.8-15.6,8.9-20.3,14.7c-3.6,4.4-15.4,15.7,16.4,53.5C94.5,153.1,107.3,142.8,112.1,139.8L112.1,139.8z"/>
</svg>
