<?xml version="1.0" encoding="utf-8"?>
<!-- Generator: Adobe Illustrator 23.0.2, SVG Export Plug-In . SVG Version: 6.00 Build 0)  -->
<svg version="1.1" id="Слой_1" xmlns="http://www.w3.org/2000/svg" xmlns:xlink="http://www.w3.org/1999/xlink" x="0px" y="0px"
	 viewBox="0 0 240 230" style="enable-background:new 0 0 240 230;" xml:space="preserve">
<style type="text/css">
	.st0{fill-rule:evenodd;clip-rule:evenodd;fill:#f75b18;}
</style>
<path class="st0" d="M209.25,163.81c0,0-50.5,0-97.62,0l-53.25,53.25v-53.25c-15.98,0-26.62,0-26.62,0
	c-9.76,0-17.75-7.99-17.75-17.75V30.69c0-9.76,7.99-17.75,17.75-17.75h177.5c9.76,0,17.75,7.99,17.75,17.75v115.38
	C227,155.83,219.01,163.81,209.25,163.81L209.25,163.81L209.25,163.81z M40.62,137.19H156v-17.75H40.62V137.19L40.62,137.19
	L40.62,137.19z M40.62,110.56h88.75V92.81H40.62V110.56L40.62,110.56L40.62,110.56z M164.87,39.56H40.62v17.75h124.25V39.56
	L164.87,39.56L164.87,39.56z M200.38,66.19H40.62v17.75h159.75V66.19L200.38,66.19L200.38,66.19z"/>
</svg>
