<?xml version="1.0" encoding="utf-8"?>
<!-- Generator: Adobe Illustrator 19.1.0, SVG Export Plug-In . SVG Version: 6.00 Build 0)  -->
<svg version="1.1" id="Слой_1" xmlns="http://www.w3.org/2000/svg" xmlns:xlink="http://www.w3.org/1999/xlink" x="0px" y="0px"
	 viewBox="0 0 192.4 190" style="enable-background:new 0 0 192.4 190;" xml:space="preserve">
<style type="text/css">
	.st0{fill-rule:evenodd;clip-rule:evenodd;fill:#f75b18;}
</style>
<path class="st0" d="M97.4,190c-52.5,0-95-42.5-95-95c0-52.5,42.5-95,95-95c52.5,0,95,42.5,95,95C192.4,147.5,149.8,190,97.4,190
	L97.4,190z M97.4,12.4c-45.6,0-82.6,37-82.6,82.6c0,45.6,37,82.6,82.6,82.6c45.6,0,82.6-37,82.6-82.6C179.9,49.4,143,12.4,97.4,12.4
	L97.4,12.4z M135,102.9h-30.5v30.5c0,4.2-3.4,7.5-7.5,7.5h0c-4.2,0-7.5-3.4-7.5-7.5v-30.5H59c-4.2,0-7.5-3.4-7.5-7.5v0
	c0-4.2,3.4-7.5,7.5-7.5h30.5V57.3c0-4.2,3.4-7.5,7.5-7.5h0c4.2,0,7.5,3.4,7.5,7.5v30.5H135c4.2,0,7.5,3.4,7.5,7.5v0
	C142.6,99.5,139.2,102.9,135,102.9L135,102.9z"/>
</svg>
