<?xml version="1.0" encoding="utf-8"?>
<!-- Generator: Adobe Illustrator 19.1.0, SVG Export Plug-In . SVG Version: 6.00 Build 0)  -->
<svg version="1.1" id="Слой_1" xmlns="http://www.w3.org/2000/svg" xmlns:xlink="http://www.w3.org/1999/xlink" x="0px" y="0px"
	 viewBox="0 0 316.7 301.2" style="enable-background:new 0 0 316.7 301.2;" xml:space="preserve">
<g>
	<defs>
		<path id="SVGID_1_" d="M275.8,301.2H87.6H46.7v-160h40.9h188.2h40.9v160H275.8L275.8,301.2z M297.7,189.2c-16,0-29-13-29-29h-174
			c0,16-13,29-29,29v64c16,0,29,13,29,29h174c0-16,13-29,29-29V189.2L297.7,189.2z M273.9,107.3l-30.8-56.1
			c-14,7.7-31.7,2.6-39.4-11.5L55.4,121.2h-8.6c-11,0-20,9-20,20v37.5L0,129.9l35.9-19.7l165-90.5L236.7,0l66.5,121.2h-41.9
			C263.8,115.5,268.1,110.5,273.9,107.3L273.9,107.3z"/>
	</defs>
	<use xlink:href="#SVGID_1_"  style="overflow:visible;fill-rule:evenodd;clip-rule:evenodd;fill:#111212;"/>
	<clipPath id="SVGID_2_">
		<use xlink:href="#SVGID_1_"  style="overflow:visible;"/>
	</clipPath>
</g>
<g>
	<defs>
		<path id="SVGID_3_" d="M261.7,236.2c-8.3,0-15-6.7-15-15c0-8.3,6.7-15,15-15c8.3,0,15,6.7,15,15
			C276.7,229.4,270,236.2,261.7,236.2L261.7,236.2z M234.2,109.7c-7.3,4-16.4,1.3-20.4-5.9c-4-7.3-1.3-16.4,5.9-20.4
			c7.3-4,16.4-1.3,20.4,5.9C244.1,96.6,241.5,105.8,234.2,109.7L234.2,109.7z M137.1,99.1c23.2-12.8,50.9-7,61.8,12.9
			c1.6,2.9,2.8,6,3.5,9.2h-87.1C119.8,112.4,127.3,104.5,137.1,99.1L137.1,99.1z M101.7,236.2c-8.3,0-15-6.7-15-15
			c0-8.3,6.7-15,15-15c8.3,0,15,6.7,15,15C116.7,229.4,110,236.2,101.7,236.2L101.7,236.2z M181.7,180.2c26.5,0,48,18.4,48,41
			c0,22.6-21.5,41-48,41c-26.5,0-48-18.4-48-41C133.7,198.5,155.2,180.2,181.7,180.2L181.7,180.2z"/>
	</defs>
	<use xlink:href="#SVGID_3_"  style="overflow:visible;fill-rule:evenodd;clip-rule:evenodd;fill:#f75b18;"/>
	<clipPath id="SVGID_4_">
		<use xlink:href="#SVGID_3_"  style="overflow:visible;"/>
	</clipPath>
</g>
</svg>
