<?xml version="1.0" encoding="utf-8"?>
<!-- Generator: Adobe Illustrator 23.0.2, SVG Export Plug-In . SVG Version: 6.00 Build 0)  -->
<svg version="1.1" id="Слой_1" xmlns="http://www.w3.org/2000/svg" xmlns:xlink="http://www.w3.org/1999/xlink" x="0px" y="0px"
	 viewBox="0 0 290.94 39.99" style="enable-background:new 0 0 290.94 39.99;" xml:space="preserve">
<style type="text/css">
	.st0{fill-rule:evenodd;clip-rule:evenodd;fill:#111212;}
	.st1{fill:#f75b18;}
</style>
<path class="st0" d="M231.87,34.29h-6.6V23.81c0-0.86-0.03-1.7-0.1-2.55c-0.07-0.85-0.2-1.47-0.39-1.87
	c-0.23-0.48-0.55-0.82-0.98-1.03c-0.43-0.2-1-0.31-1.72-0.31c-0.55,0-1.09,0.1-1.65,0.3c-0.55,0.2-1.15,0.52-1.78,0.96v14.98h-6.6
	V13.15h6.6v2.34c1.08-0.92,2.14-1.63,3.16-2.15c1.02-0.51,2.16-0.77,3.4-0.77c2.16,0,3.82,0.68,4.96,2.04
	c1.14,1.36,1.72,3.33,1.72,5.91V34.29L231.87,34.29z M201.78,23.77c0-1.25-0.1-2.29-0.31-3.12c-0.21-0.84-0.5-1.5-0.86-2
	c-0.39-0.53-0.83-0.89-1.33-1.1c-0.49-0.21-1.06-0.31-1.69-0.31c-0.59,0-1.13,0.09-1.61,0.27c-0.48,0.18-0.93,0.53-1.33,1.04
	c-0.37,0.49-0.68,1.16-0.91,2.01c-0.22,0.85-0.34,1.92-0.34,3.21c0,1.29,0.11,2.33,0.32,3.12c0.21,0.8,0.5,1.43,0.84,1.9
	c0.35,0.49,0.79,0.84,1.33,1.07c0.53,0.23,1.12,0.34,1.76,0.34c0.53,0,1.07-0.11,1.62-0.34c0.55-0.22,0.98-0.56,1.31-1.01
	c0.39-0.54,0.69-1.18,0.89-1.94C201.67,26.15,201.78,25.1,201.78,23.77L201.78,23.77z M208.54,23.73c0,3.48-0.95,6.22-2.86,8.21
	c-1.91,2-4.6,3-8.09,3c-3.46,0-6.15-1-8.07-3c-1.92-2-2.88-4.74-2.88-8.21c0-3.51,0.96-6.26,2.88-8.25
	c1.92-1.99,4.61-2.98,8.07-2.98c3.48,0,6.17,1,8.08,3C207.58,17.5,208.54,20.24,208.54,23.73L208.54,23.73z M183.13,34.29h-6.6
	V13.15h6.6V34.29L183.13,34.29z M163.13,34.87c-1.56,0-3.03-0.17-4.42-0.51c-1.39-0.34-2.54-0.73-3.44-1.18v-5.56h0.55
	c0.32,0.24,0.68,0.5,1.08,0.79c0.41,0.28,0.97,0.58,1.68,0.9c0.62,0.28,1.31,0.53,2.09,0.74c0.77,0.2,1.61,0.31,2.52,0.31
	c0.93,0,1.75-0.14,2.46-0.43c0.71-0.29,1.07-0.75,1.07-1.38c0-0.49-0.16-0.86-0.49-1.11c-0.33-0.25-0.97-0.49-1.91-0.71
	c-0.5-0.13-1.14-0.26-1.91-0.4c-0.77-0.15-1.45-0.31-2.04-0.5c-1.66-0.51-2.92-1.27-3.75-2.28c-0.84-1.01-1.25-2.34-1.25-3.98
	c0-0.94,0.22-1.83,0.65-2.66c0.44-0.84,1.08-1.58,1.92-2.23c0.84-0.64,1.89-1.15,3.13-1.52c1.24-0.38,2.64-0.57,4.2-0.57
	c1.49,0,2.85,0.15,4.1,0.44c1.25,0.3,2.3,0.65,3.15,1.07v5.36h-0.53c-0.23-0.18-0.59-0.41-1.08-0.71c-0.5-0.3-0.97-0.55-1.43-0.76
	c-0.56-0.26-1.18-0.46-1.87-0.63c-0.68-0.16-1.38-0.24-2.11-0.24c-0.95,0-1.76,0.16-2.43,0.49c-0.66,0.33-0.99,0.76-0.99,1.3
	c0,0.48,0.16,0.85,0.49,1.13c0.33,0.28,1.04,0.55,2.14,0.81c0.57,0.14,1.22,0.27,1.96,0.4c0.73,0.13,1.44,0.31,2.12,0.53
	c1.53,0.49,2.68,1.21,3.47,2.15c0.79,0.95,1.18,2.2,1.18,3.77c0,0.99-0.23,1.94-0.7,2.83c-0.47,0.9-1.13,1.66-1.98,2.27
	c-0.91,0.67-1.98,1.18-3.2,1.54C166.31,34.69,164.84,34.87,163.13,34.87L163.13,34.87z M151.6,34.29h-6.6V13.15h6.6V34.29
	L151.6,34.29z M142.5,13.15l-7.6,21.14h-7.21l-7.55-21.14h6.93l4.36,14.01l4.3-14.01H142.5L142.5,13.15z M15.76,28.3
	c0.6,0,1.16-0.1,1.67-0.31l-3.07-2.43l3.07-3.88l2.69,2.12c0.02-0.23,0.03-0.47,0.03-0.71v-6.77c0-1.04-0.18-1.95-0.55-2.74
	c-0.36-0.79-0.87-1.4-1.54-1.83c-0.67-0.43-1.43-0.65-2.3-0.65c-0.87,0-1.64,0.22-2.31,0.65c-0.67,0.43-1.18,1.04-1.54,1.83
	c-0.37,0.79-0.55,1.7-0.55,2.74v6.77c0,1.04,0.18,1.95,0.55,2.74c0.36,0.79,0.87,1.4,1.54,1.83C14.11,28.09,14.88,28.3,15.76,28.3
	L15.76,28.3z M25.07,27.71l3.43,2.71l-3.07,3.91l-3.27-2.59c-0.36,0.28-0.75,0.53-1.16,0.76c-1.52,0.84-3.27,1.26-5.24,1.26
	c-1.98,0-3.73-0.42-5.25-1.26C9,31.66,7.83,30.48,7,28.94c-0.83-1.53-1.24-3.31-1.24-5.33V15.8c0-2.03,0.41-3.8,1.24-5.34
	c0.83-1.53,2-2.72,3.51-3.56c1.52-0.84,3.27-1.26,5.25-1.26c1.98,0,3.73,0.42,5.24,1.26c1.51,0.84,2.69,2.03,3.51,3.56
	c0.83,1.53,1.24,3.31,1.24,5.34v7.81C25.76,25.11,25.53,26.48,25.07,27.71L25.07,27.71z M31.03,36.78V3.19H3.87
	c-0.35,0-0.64,0.29-0.64,0.64v32.3c0,0.35,0.29,0.64,0.64,0.64H31.03L31.03,36.78z M116.59,3.19v33.59h118.18
	c0.35,0,0.64-0.29,0.64-0.64V3.84c0-0.35-0.29-0.64-0.64-0.64H116.59L116.59,3.19z M290.94,34.29h-18.06v-4.25l9.93-11.57h-9.48
	V13.7h17.42v4.12l-9.9,11.55h10.09V34.29L290.94,34.29z M272.49,34.29h-7.67l-5.59-8.93l-1,1.33v7.6h-6.43V5.74h6.43v16.01
	l6.11-8.04h7.62l-7.24,8.87L272.49,34.29L272.49,34.29z M3.22,0h232.19c1.77,0,3.22,1.45,3.22,3.21v33.57
	c0,1.77-1.45,3.21-3.22,3.21H3.22C1.45,39.99,0,38.55,0,36.78V3.21C0,1.45,1.45,0,3.22,0L3.22,0z"/>
<path class="st1" d="M111.54,34.29h-9.47l-2.3-7.67l-2.3,7.67h-9.47l5.88-14.28L88.01,5.74h10.04l1.73,6.74l1.73-6.74h10.04
	l-5.88,14.28L111.54,34.29L111.54,34.29z M77.26,30.37h-2.37h-2.37l-0.69,3.92h-8.9l6.62-28.55h5.34h5.34l6.62,28.55h-8.9
	L77.26,30.37L77.26,30.37z M74.89,15.62l-1.19,8.27h1.19h1.19L74.89,15.62L74.89,15.62z M52.86,21.49l-3.28,12.8H48.6h-0.99
	l-3.28-12.8v12.8H35.8V5.74h10.15l2.65,11.75l2.65-11.75h10.15v28.55h-8.53V21.49L52.86,21.49z M144.99,10.36V5.74h6.6v4.62H144.99
	L144.99,10.36z M176.53,10.36V5.74h6.6v4.62H176.53L176.53,10.36z M241.93,34.29v-4.62h6.6v4.62H241.93L241.93,34.29z M52.86,34.29
	v-12.8l-3.28,12.8H48.6h-0.99l-3.28-12.8v12.8H35.8V5.74h10.15l2.65,11.75l2.65-11.75h10.15v28.55H52.86L52.86,34.29z M77.95,34.29
	l-0.69-3.92h-2.37h-2.37l-0.69,3.92h-8.9l6.62-28.55h5.34h5.34l6.62,28.55H77.95L77.95,34.29z M74.89,15.62l-1.19,8.27h1.19h1.19
	L74.89,15.62L74.89,15.62z M111.54,34.29h-9.47l-2.3-7.67l-2.3,7.67h-9.47l5.88-14.28L88.01,5.74h10.04l1.73,6.74l1.73-6.74h10.04
	l-5.88,14.28L111.54,34.29L111.54,34.29z"/>
</svg>
