<svg version="1.1" id="Слой_1" xmlns="http://www.w3.org/2000/svg" xmlns:xlink="http://www.w3.org/1999/xlink" x="0px" y="0px" viewBox="0 0 151 151" style="enable-background:new 0 0 151 151;" xml:space="preserve">
<style type="text/css">
	.st0{fill-rule:evenodd;clip-rule:evenodd;fill:#f75b18;}
</style>
<path class="st0" d="M148.1,52.3L134,66.4L84.7,17L98.8,2.9c3.9-3.9,10.2-3.9,14.1,0l35.2,35.2C152,42,152,48.4,148.1,52.3  L148.1,52.3z M105.8,10L98.8,17L134,52.3l7.1-7.1L105.8,10L105.8,10z M49.3,151H0v-49.3l0,0l0,0l77.6-77.6l49.3,49.3L49.3,151  L49.3,151L49.3,151z M10,141.1h29.4L10,111.7V141.1L10,141.1z M49.3,136.9l63.5-63.5L77.6,38.2l-63.5,63.5L49.3,136.9L49.3,136.9z"/>
</svg>